<?xml version="1.0" encoding="utf-8"?>
<!-- Generator: Adobe Illustrator 15.1.0, SVG Export Plug-In . SVG Version: 6.00 Build 0)  -->
<!DOCTYPE svg PUBLIC "-//W3C//DTD SVG 1.1//EN" "http://www.w3.org/Graphics/SVG/1.1/DTD/svg11.dtd">
<svg version="1.1" id="Vrstva_1" xmlns="http://www.w3.org/2000/svg" xmlns:xlink="http://www.w3.org/1999/xlink" x="0px" y="0px"
	 width="85.04px" height="85.04px" viewBox="0 0 85.04 85.04" enable-background="new 0 0 85.04 85.04" xml:space="preserve">
<path fill="#FFFFFF" d="M71.088,72.182c-0.498,0-0.9-0.402-0.9-0.9v-8.504c0-4.193-3.411-7.604-7.604-7.604H22.899
	c-4.193,0-7.604,3.411-7.604,7.604v8.504c0,0.498-0.403,0.9-0.9,0.9s-0.9-0.402-0.9-0.9v-8.504c0-5.186,4.218-9.404,9.404-9.404
	h39.685c5.186,0,9.403,4.219,9.403,9.404v8.504C71.988,71.78,71.584,72.182,71.088,72.182z M42.742,52.34
	c-10.656,0-19.326-8.669-19.326-19.326c0-10.656,8.669-19.325,19.326-19.325c10.656,0,19.325,8.669,19.325,19.325
	C62.067,43.671,53.398,52.34,42.742,52.34z M42.742,15.489c-9.664,0-17.526,7.862-17.526,17.525s7.862,17.526,17.526,17.526
	c9.663,0,17.525-7.862,17.525-17.526S52.405,15.489,42.742,15.489z"/>
</svg>
