<?xml version="1.0" encoding="utf-8"?>
<!-- Generator: Adobe Illustrator 15.1.0, SVG Export Plug-In . SVG Version: 6.00 Build 0)  -->
<!DOCTYPE svg PUBLIC "-//W3C//DTD SVG 1.1//EN" "http://www.w3.org/Graphics/SVG/1.1/DTD/svg11.dtd">
<svg version="1.1" id="Vrstva_1" xmlns="http://www.w3.org/2000/svg" xmlns:xlink="http://www.w3.org/1999/xlink" x="0px" y="0px"
	 width="85.04px" height="85.04px" viewBox="0 0 85.04 85.04" enable-background="new 0 0 85.04 85.04" xml:space="preserve">
<g>
	<g>
		<g>
			<path fill="#142D48" d="M41.125,53.984c0.043-2.285,0.411-4.157,1.104-5.616c0.694-1.458,2.003-3.045,3.924-4.759
				c1.922-1.714,3.268-3.09,4.037-4.129c0.769-1.039,1.328-2.117,1.681-3.238c0.353-1.119,0.528-2.465,0.528-4.033
				c0-2.953-0.822-5.275-2.466-6.966c-1.645-1.69-3.907-2.536-6.791-2.536c-3.074,0-5.492,0.875-7.255,2.624
				c-1.761,1.749-2.663,3.995-2.706,6.741h-1.729c0.043-3.305,1.163-5.968,3.363-7.988c2.199-2.02,4.975-3.029,8.327-3.029
				s6.022,1.01,8.008,3.029c1.986,2.021,2.979,4.744,2.979,8.172c0,2.346-0.48,4.433-1.44,6.258
				c-0.961,1.826-2.831,3.943-5.605,6.351c-2.819,2.102-4.229,5.142-4.229,9.12H41.125z M40.357,61.891
				c0-0.47,0.171-0.872,0.512-1.209c0.342-0.337,0.759-0.505,1.25-0.505s0.913,0.168,1.265,0.505
				c0.353,0.337,0.529,0.739,0.529,1.209s-0.177,0.867-0.529,1.193c-0.352,0.326-0.773,0.49-1.265,0.49s-0.908-0.164-1.25-0.49
				C40.528,62.758,40.357,62.361,40.357,61.891z"/>
		</g>
	</g>
	<path fill="#41C0F0" d="M42.774,71.559c-4.16,0-8.206-0.875-12.026-2.602C16.056,62.316,9.506,44.961,16.146,30.27
		c4.724-10.451,15.188-17.203,26.661-17.203c4.159,0,8.205,0.875,12.025,2.602c14.61,6.604,21.17,23.803,14.713,38.442l2.481,16.413
		c0.047,0.307-0.068,0.616-0.304,0.817c-0.235,0.203-0.56,0.269-0.854,0.177l-13.099-4.09
		C53.227,70.132,48.051,71.559,42.774,71.559z M42.807,14.867c-10.767,0-20.588,6.337-25.021,16.144
		c-6.231,13.787-0.084,30.074,13.703,36.306c3.585,1.621,7.382,2.442,11.284,2.442c5.081,0,10.063-1.41,14.406-4.078
		c0.223-0.137,0.492-0.17,0.739-0.092l12.112,3.781L67.726,54.12c-0.026-0.172-0.002-0.348,0.069-0.506
		c6.231-13.787,0.083-30.074-13.705-36.305C50.505,15.688,46.708,14.867,42.807,14.867z"/>
</g>
</svg>
