<?xml version="1.0" encoding="utf-8"?>
<!-- Generator: Adobe Illustrator 15.1.0, SVG Export Plug-In . SVG Version: 6.00 Build 0)  -->
<!DOCTYPE svg PUBLIC "-//W3C//DTD SVG 1.1//EN" "http://www.w3.org/Graphics/SVG/1.1/DTD/svg11.dtd">
<svg version="1.1" id="Vrstva_1" xmlns="http://www.w3.org/2000/svg" xmlns:xlink="http://www.w3.org/1999/xlink" x="0px" y="0px"
	 width="85.04px" height="85.04px" viewBox="0 0 85.04 85.04" enable-background="new 0 0 85.04 85.04" xml:space="preserve">
<g>
	<g>
		<circle fill="#41C0F0" cx="58.111" cy="66.615" r="7.086"/>
	</g>
	<path fill="#FFFFFF" d="M42.52,51.619c-9.706,0-17.602-7.897-17.602-17.602c0-9.706,7.896-17.604,17.602-17.604
		c1.402,0,1.402-5.074,0-5.074c-7.097,0-13.44,3.279-17.602,8.4v-5.863c0-1.401-1.136-2.537-2.537-2.537
		c-1.402,0-2.538,1.136-2.538,2.537v57.286c0,1.402,1.136,2.539,2.538,2.539c1.401,0,2.537-1.137,2.537-2.539V48.292
		c4.162,5.121,10.505,8.402,17.602,8.402C43.921,56.695,43.921,51.619,42.52,51.619z"/>
	<path fill="#41C0F0" d="M42.52,56.695c-1.401,0-2.537-1.137-2.537-2.537c0-1.402,1.136-2.539,2.537-2.539
		c9.707,0,17.603-7.897,17.603-17.602c0-9.706-7.896-17.604-17.603-17.604c-1.401,0-2.537-1.135-2.537-2.537
		c0-1.401,1.136-2.537,2.537-2.537c12.504,0,22.677,10.173,22.677,22.678C65.197,46.521,55.024,56.695,42.52,56.695z"/>
</g>
</svg>
