<?xml version="1.0" encoding="utf-8"?>
<!-- Generator: Adobe Illustrator 15.1.0, SVG Export Plug-In . SVG Version: 6.00 Build 0)  -->
<!DOCTYPE svg PUBLIC "-//W3C//DTD SVG 1.1//EN" "http://www.w3.org/Graphics/SVG/1.1/DTD/svg11.dtd">
<svg version="1.1" id="Vrstva_1" xmlns="http://www.w3.org/2000/svg" xmlns:xlink="http://www.w3.org/1999/xlink" x="0px" y="0px"
	 width="85.04px" height="85.04px" viewBox="0 0 85.04 85.04" enable-background="new 0 0 85.04 85.04" xml:space="preserve">
<g>
	<path fill="#41C0F0" d="M42.485,71.753c-16.127,0-29.247-13.12-29.247-29.246c0-16.126,13.12-29.247,29.247-29.247
		s29.247,13.12,29.247,29.247C71.732,58.633,58.612,71.753,42.485,71.753z M42.485,15.061c-15.134,0-27.446,12.313-27.446,27.447
		c0,15.134,12.313,27.445,27.446,27.445s27.446-12.312,27.446-27.445C69.931,27.373,57.619,15.061,42.485,15.061z"/>
	<circle fill="#41C0F0" cx="63.745" cy="42.507" r="1.701"/>
	<circle fill="#41C0F0" cx="42.485" cy="63.768" r="1.701"/>
	<circle fill="#41C0F0" cx="21.225" cy="42.507" r="1.701"/>
	<path fill="#142D48" d="M42.485,44.307c-0.478,0-0.936-0.189-1.272-0.527c-0.338-0.337-0.527-0.795-0.527-1.273V19.831
		c0-0.994,0.806-1.8,1.8-1.8s1.8,0.806,1.8,1.8v20.876l12.373-0.001c0.994,0,1.8,0.806,1.8,1.8s-0.806,1.8-1.8,1.801H42.485z"/>
</g>
</svg>
