<?xml version="1.0" encoding="utf-8"?>
<!-- Generator: Adobe Illustrator 15.1.0, SVG Export Plug-In . SVG Version: 6.00 Build 0)  -->
<!DOCTYPE svg PUBLIC "-//W3C//DTD SVG 1.1//EN" "http://www.w3.org/Graphics/SVG/1.1/DTD/svg11.dtd">
<svg version="1.1" id="Vrstva_1" xmlns="http://www.w3.org/2000/svg" xmlns:xlink="http://www.w3.org/1999/xlink" x="0px" y="0px"
	 width="85.04px" height="85.04px" viewBox="0 0 85.04 85.04" enable-background="new 0 0 85.04 85.04" xml:space="preserve">
<path fill="#142D48" d="M64.645,51.685c-3.136,0-6.027,1.431-7.932,3.927c-0.301,0.395-0.225,0.96,0.17,1.262
	c0.395,0.301,0.959,0.227,1.262-0.17c1.561-2.045,3.93-3.219,6.5-3.219c4.505,0,8.17,3.666,8.17,8.171s-3.665,8.171-8.17,8.171
	c-4.506,0-8.172-3.666-8.172-8.171c0-0.497-0.402-0.899-0.899-0.899h-20.41c-0.497,0-0.9,0.402-0.9,0.899
	c0,4.505-3.666,8.171-8.17,8.171c-4.506,0-8.171-3.666-8.171-8.171s3.666-8.171,8.171-8.171h0c0.041,0,0.082-0.002,0.123-0.008
	l38.553-5.344c0.322-0.045,0.595-0.26,0.714-0.563l2.628-6.687c0,0,0-0.001,0-0.001l6.441-16.392
	c0.104-0.264,0.076-0.561-0.072-0.802c-0.148-0.241-0.402-0.398-0.685-0.424l-53.183-4.798l-0.438-2.333
	c-0.063-0.335-0.31-0.606-0.638-0.699l-7.939-2.268c-0.476-0.138-0.976,0.14-1.112,0.618s0.14,0.976,0.618,1.112l7.404,2.115
	l6.511,34.729c-4.995,0.537-8.897,4.777-8.897,9.913c0,5.498,4.473,9.971,9.971,9.971c5.194,0,9.474-3.993,9.93-9.071h18.689
	c0.457,5.078,4.736,9.071,9.932,9.071c5.498,0,9.971-4.473,9.971-9.971S70.143,51.685,64.645,51.685z M23.074,31.591l10.996,0.359
	l0.935,8.822L24.86,41.122L23.074,31.591z M66.649,39.683l-8.344,0.287l1.354-7.184l9.578,0.313L66.649,39.683z M56.461,40.034
	l-8.777,0.302v-7.941l10.154,0.332L56.461,40.034z M47.684,42.137l8.436-0.291l-1.098,5.82l-7.338,1.018V42.137z M45.885,48.934
	l-8.087,1.12l-0.8-7.549l8.887-0.306V48.934z M47.684,30.594v-7.876l11.84,1.068l-1.348,7.151L47.684,30.594z M45.885,30.535
	l-10.191-0.333l-0.917-8.649l11.108,1.002V30.535z M45.885,32.336v8.062l-9.077,0.313l-0.922-8.701L45.885,32.336z M35.195,42.567
	l0.82,7.734l-9.194,1.274l-1.625-8.665L35.195,42.567z M64,46.422l-7.098,0.984l1.061-5.624l7.969-0.274L64,46.422z M69.935,31.321
	l-9.938-0.324l1.328-7.048l11.113,1.002L69.935,31.321z M32.95,21.388l0.928,8.755l-11.144-0.364l-1.776-9.472L32.95,21.388z"/>
</svg>
