<?xml version="1.0" encoding="utf-8"?>
<!-- Generator: Adobe Illustrator 15.1.0, SVG Export Plug-In . SVG Version: 6.00 Build 0)  -->
<!DOCTYPE svg PUBLIC "-//W3C//DTD SVG 1.1//EN" "http://www.w3.org/Graphics/SVG/1.1/DTD/svg11.dtd">
<svg version="1.1" id="Vrstva_1" xmlns="http://www.w3.org/2000/svg" xmlns:xlink="http://www.w3.org/1999/xlink" x="0px" y="0px"
	 width="85.04px" height="85.04px" viewBox="0 0 85.04 85.04" enable-background="new 0 0 85.04 85.04" xml:space="preserve">
<path fill="#FFFFFF" d="M70.764,74.602H14.072c-0.497,0-0.9-0.403-0.9-0.9V39.684c0-0.497,0.403-0.9,0.9-0.9h56.692
	c0.497,0,0.9,0.403,0.9,0.9v34.018C71.665,74.199,71.261,74.602,70.764,74.602z M51.823,72.801h18.041V40.584H14.972v32.217h18.043
	V48.19c0-0.497,0.403-0.9,0.9-0.9h17.008c0.497,0,0.9,0.403,0.9,0.9V72.801z M34.814,72.801h15.208V49.09H34.814V72.801z
	 M5.569,43.418c-0.256,0-0.509-0.108-0.688-0.318c-0.321-0.38-0.274-0.948,0.105-1.269l36.85-31.18c0.336-0.284,0.827-0.284,1.163,0
	l10.653,9.014v-8.327c0-0.497,0.402-0.9,0.899-0.9h7.327c0.496,0,0.899,0.403,0.899,0.9v16.049l17.07,14.444
	c0.38,0.321,0.427,0.889,0.106,1.269c-0.324,0.379-0.891,0.425-1.269,0.105L53.992,22.31c-0.014-0.011-0.027-0.022-0.04-0.034
	l-11.534-9.759L6.15,43.205C5.98,43.348,5.774,43.418,5.569,43.418z M55.452,21.188l5.527,4.676V12.238h-5.527V21.188z"/>
</svg>
