<?xml version="1.0" encoding="utf-8"?>
<!-- Generator: Adobe Illustrator 15.1.0, SVG Export Plug-In . SVG Version: 6.00 Build 0)  -->
<!DOCTYPE svg PUBLIC "-//W3C//DTD SVG 1.1//EN" "http://www.w3.org/Graphics/SVG/1.1/DTD/svg11.dtd">
<svg version="1.1" id="Vrstva_1" xmlns="http://www.w3.org/2000/svg" xmlns:xlink="http://www.w3.org/1999/xlink" x="0px" y="0px"
	 width="85.04px" height="85.04px" viewBox="0 0 85.04 85.04" enable-background="new 0 0 85.04 85.04" xml:space="preserve">
<g>
	<path fill="#142D48" d="M51.553,47.879H33.78v1.957c0,6.234,1.673,11.063,5.02,14.479c3.346,3.418,7.935,5.127,13.769,5.127
		c3.072,0,5.938-0.442,8.594-1.328v2.227c-2.734,0.807-5.6,1.211-8.594,1.211c-6.484,0-11.588-1.924-15.312-5.771
		c-3.725-3.848-5.586-9.201-5.586-16.062v-1.839h-8.008V45.77h8.008v-7.539h-8.008v-2.109h8.008v-1.641
		c0.052-6.692,1.914-11.934,5.586-15.723s8.75-5.684,15.234-5.684c2.5,0,5.391,0.404,8.672,1.211v2.266
		c-2.916-0.911-5.807-1.367-8.672-1.367c-5.963,0-10.566,1.68-13.808,5.039s-4.877,8.125-4.902,14.297v1.602h17.773v2.109H33.78
		v7.539h17.773V47.879z"/>
</g>
</svg>
