<?xml version="1.0" encoding="utf-8"?>
<!-- Generator: Adobe Illustrator 15.1.0, SVG Export Plug-In . SVG Version: 6.00 Build 0)  -->
<!DOCTYPE svg PUBLIC "-//W3C//DTD SVG 1.1//EN" "http://www.w3.org/Graphics/SVG/1.1/DTD/svg11.dtd">
<svg version="1.1" id="Vrstva_1" xmlns="http://www.w3.org/2000/svg" xmlns:xlink="http://www.w3.org/1999/xlink" x="0px" y="0px"
	 width="85.04px" height="85.04px" viewBox="0 0 85.04 85.04" enable-background="new 0 0 85.04 85.04" xml:space="preserve">
<g>
	<circle fill="#41C0F0" cx="29.911" cy="45.15" r="4.253"/>
	<circle fill="#41C0F0" cx="44.083" cy="45.15" r="4.252"/>
	<circle fill="#41C0F0" cx="58.257" cy="45.15" r="4.252"/>
	<path fill="#142D48" d="M44.1,71.559c-5.277,0-10.453-1.427-14.997-4.132l-13.098,4.091c-0.295,0.092-0.618,0.026-0.854-0.177
		c-0.235-0.201-0.35-0.511-0.304-0.817l2.482-16.413c-6.458-14.639,0.102-31.839,14.713-38.442
		c3.819-1.727,7.865-2.602,12.025-2.602c11.473,0,21.938,6.752,26.66,17.203c3.217,7.117,3.47,15.061,0.711,22.368
		c-2.758,7.308-8.196,13.104-15.313,16.32C52.307,70.684,48.26,71.559,44.1,71.559z M29.222,65.547c0.165,0,0.328,0.046,0.471,0.134
		c4.344,2.668,9.326,4.078,14.407,4.078c3.903,0,7.699-0.821,11.285-2.442c6.678-3.019,11.782-8.457,14.37-15.314
		c2.589-6.857,2.352-14.313-0.668-20.992c-4.432-9.807-14.253-16.144-25.02-16.144c-3.902,0-7.699,0.821-11.284,2.442
		C18.997,23.54,12.849,39.827,19.08,53.614c0.071,0.158,0.096,0.334,0.069,0.506l-2.306,15.251l12.111-3.782
		C29.042,65.561,29.132,65.547,29.222,65.547z"/>
</g>
</svg>
