<?xml version="1.0" encoding="utf-8"?>
<!-- Generator: Adobe Illustrator 15.1.0, SVG Export Plug-In . SVG Version: 6.00 Build 0)  -->
<!DOCTYPE svg PUBLIC "-//W3C//DTD SVG 1.1//EN" "http://www.w3.org/Graphics/SVG/1.1/DTD/svg11.dtd">
<svg version="1.1" id="Vrstva_1" xmlns="http://www.w3.org/2000/svg" xmlns:xlink="http://www.w3.org/1999/xlink" x="0px" y="0px"
	 width="85.04px" height="85.04px" viewBox="0 0 85.04 85.04" enable-background="new 0 0 85.04 85.04" xml:space="preserve">
<path fill="#FFFFFF" d="M79.237,74.602h-73.7c-0.497,0-0.9-0.403-0.9-0.9v-48.19c0-0.497,0.403-0.9,0.9-0.9h21.775V11.338
	c0-0.497,0.403-0.9,0.9-0.9h28.349c0.497,0,0.9,0.403,0.9,0.9v13.273h21.775c0.497,0,0.9,0.403,0.9,0.9v48.19
	C80.137,74.199,79.734,74.602,79.237,74.602z M6.437,72.801h71.899V49.086H51.792v7.605c0,0.497-0.403,0.9-0.9,0.9h-17.01
	c-0.497,0-0.9-0.403-0.9-0.9v-7.605H6.437V72.801z M34.783,55.792h15.209v-6.705H34.783V55.792z M50.892,47.288h27.444V26.411
	H56.645c-0.055,0.006-0.113,0.006-0.168,0H28.296c-0.055,0.006-0.113,0.006-0.168,0H6.437v20.876H50.892z M29.113,24.611h26.548
	V12.238H29.113V24.611z"/>
</svg>
