<?xml version="1.0" encoding="utf-8"?>
<!-- Generator: Adobe Illustrator 15.1.0, SVG Export Plug-In . SVG Version: 6.00 Build 0)  -->
<!DOCTYPE svg PUBLIC "-//W3C//DTD SVG 1.1//EN" "http://www.w3.org/Graphics/SVG/1.1/DTD/svg11.dtd">
<svg version="1.1" id="Vrstva_1" xmlns="http://www.w3.org/2000/svg" xmlns:xlink="http://www.w3.org/1999/xlink" x="0px" y="0px"
	 width="85.04px" height="85.04px" viewBox="0 0 85.04 85.04" enable-background="new 0 0 85.04 85.04" xml:space="preserve">
<path fill="#142D48" d="M50.614,12.133c-16.127,0-29.247,13.12-29.247,29.247c0,4.367,0.946,8.559,2.795,12.471
	c-0.878,1.744-5.496,9.268-18.717,6.491c-0.36-0.075-0.733,0.076-0.937,0.386c-0.203,0.309-0.198,0.709,0.015,1.012
	c0.082,0.117,6.412,8.865,19.23,8.865c3.975-0.001,8.581-0.854,13.811-3.055c4.023,2.008,8.522,3.076,13.05,3.076
	c16.126,0,29.246-13.119,29.246-29.246C79.86,25.253,66.74,12.133,50.614,12.133z M35.923,41.379c0-4.134,0.495-8.055,1.375-11.575
	h12.416v23.149H37.297C36.417,49.434,35.923,45.514,35.923,41.379z M51.513,13.989c5.123,0.582,9.544,6.089,11.922,14.016H51.513
	V13.989z M49.713,28.005H37.792c2.378-7.927,6.799-13.434,11.922-14.016V28.005z M49.713,54.754V68.77
	c-5.123-0.582-9.543-6.09-11.922-14.016H49.713z M51.513,54.754h11.922c-2.378,7.926-6.799,13.434-11.922,14.016V54.754z
	 M51.513,52.954V29.805h12.416c0.88,3.52,1.374,7.44,1.374,11.575c0,4.135-0.494,8.055-1.374,11.574H51.513z M65.754,29.805h9.737
	c1.644,3.52,2.568,7.44,2.568,11.575c0,4.135-0.925,8.055-2.568,11.574h-9.737c0.866-3.552,1.35-7.465,1.35-11.574
	C67.104,37.27,66.621,33.357,65.754,29.805z M74.569,28.005H65.27c-1.688-5.795-4.434-10.464-7.784-13.201
	C64.809,16.7,70.952,21.553,74.569,28.005z M43.741,14.804c-3.351,2.737-6.097,7.406-7.785,13.201h-9.298
	C30.275,21.553,36.417,16.7,43.741,14.804z M25.735,29.805h9.737c-0.866,3.552-1.349,7.465-1.349,11.575
	c0,4.109,0.483,8.022,1.349,11.574H25.73c-1.695-3.633-2.564-7.522-2.564-11.574C23.167,37.245,24.091,33.324,25.735,29.805z
	 M38.011,65.768c-0.23-0.117-0.503-0.145-0.759-0.033C20.8,72.838,11.184,66.065,7.6,62.53c12.142,1.533,16.974-5.68,18.107-7.775
	h10.249c1.688,5.795,4.435,10.465,7.786,13.201C41.77,67.447,39.854,66.723,38.011,65.768z M57.486,67.955
	c3.351-2.737,6.097-7.405,7.784-13.2h9.299C70.952,61.206,64.809,66.059,57.486,67.955z"/>
</svg>
