<?xml version="1.0" encoding="utf-8"?>
<!-- Generator: Adobe Illustrator 15.1.0, SVG Export Plug-In . SVG Version: 6.00 Build 0)  -->
<!DOCTYPE svg PUBLIC "-//W3C//DTD SVG 1.1//EN" "http://www.w3.org/Graphics/SVG/1.1/DTD/svg11.dtd">
<svg version="1.1" id="Vrstva_1" xmlns="http://www.w3.org/2000/svg" xmlns:xlink="http://www.w3.org/1999/xlink" x="0px" y="0px"
	 width="85.04px" height="85.04px" viewBox="0 0 85.04 85.04" enable-background="new 0 0 85.04 85.04" xml:space="preserve">
<g>
	<path fill="#142D48" d="M65.415,27.762c-0.299-0.396-0.863-0.477-1.261-0.178c-0.397,0.299-0.478,0.863-0.179,1.26
		c8.154,10.843,7.057,26.268-2.553,35.877c-10.703,10.7-28.115,10.7-38.816,0c-10.702-10.701-10.702-28.114,0-38.816
		c4.645-4.645,10.662-7.412,17.137-7.939L35.709,22c-0.352,0.351-0.352,0.921,0,1.272c0.176,0.176,0.406,0.264,0.636,0.264
		s0.46-0.088,0.636-0.264l5.669-5.669c0.083-0.082,0.148-0.181,0.194-0.29c0.045-0.109,0.07-0.227,0.07-0.347
		s-0.024-0.238-0.07-0.347c-0.046-0.109-0.112-0.208-0.194-0.29l-5.669-5.668c-0.352-0.352-0.922-0.352-1.272,0
		c-0.352,0.352-0.352,0.921,0,1.272l4.215,4.215c-7.024,0.493-13.563,3.456-18.59,8.484C9.93,36.036,9.93,54.59,21.333,65.995
		c5.702,5.7,13.19,8.551,20.68,8.551s14.979-2.851,20.681-8.552C72.934,55.754,74.103,39.318,65.415,27.762z"/>
	<path fill="#41C0F0" d="M42.013,53.682L42.013,53.682c-0.716,0-1.403-0.285-1.909-0.791L25.932,38.717
		c-1.055-1.055-1.054-2.764,0-3.818c1.055-1.055,2.764-1.055,3.818,0l12.263,12.265l26.438-26.438c1.055-1.055,2.764-1.055,3.818,0
		s1.055,2.764,0,3.818L43.922,52.891C43.416,53.397,42.729,53.682,42.013,53.682z"/>
</g>
</svg>
