<?xml version="1.0" encoding="utf-8"?>
<!-- Generator: Adobe Illustrator 15.1.0, SVG Export Plug-In . SVG Version: 6.00 Build 0)  -->
<!DOCTYPE svg PUBLIC "-//W3C//DTD SVG 1.1//EN" "http://www.w3.org/Graphics/SVG/1.1/DTD/svg11.dtd">
<svg version="1.1" id="Vrstva_1" xmlns="http://www.w3.org/2000/svg" xmlns:xlink="http://www.w3.org/1999/xlink" x="0px" y="0px"
	 width="85.04px" height="85.04px" viewBox="0 0 85.04 85.04" enable-background="new 0 0 85.04 85.04" xml:space="preserve">
<path fill="#FFFFFF" d="M42.431,74.524c-17.739,0-32.172-14.432-32.172-32.17c0-17.739,14.433-32.171,32.172-32.171
	s32.171,14.432,32.171,32.171C74.602,60.092,60.17,74.524,42.431,74.524z M42.431,12.163c-16.647,0-30.191,13.543-30.191,30.191
	c0,16.646,13.544,30.189,30.191,30.189S72.622,59,72.622,42.354C72.622,25.706,59.079,12.163,42.431,12.163z M45.719,64.502h-8.841
	c-0.547,0-0.99-0.443-0.99-0.99V43.131h-3.429c-0.547,0-0.99-0.443-0.99-0.99v-7.364c0-0.547,0.443-0.99,0.99-0.99h3.429v-3.431
	c0-7.114,3.457-10.572,10.569-10.572h5.901c0.547,0,0.99,0.443,0.99,0.99v7.365c0,0.547-0.443,0.99-0.99,0.99h-3.688
	c-1.951,0-1.951,0.3-1.951,1.961l-0.008,2.697h5.689c0.281,0,0.549,0.119,0.736,0.328c0.188,0.209,0.277,0.488,0.248,0.767
	l-0.783,7.364c-0.054,0.503-0.479,0.886-0.984,0.886h-4.909v20.381C46.709,64.059,46.266,64.502,45.719,64.502z M37.869,62.522h6.86
	V42.141c0-0.547,0.443-0.99,0.99-0.99h5.009l0.573-5.384h-5.582c-0.263,0-0.516-0.105-0.701-0.291
	c-0.186-0.187-0.29-0.439-0.289-0.702l0.011-3.687c0-2.074,0.301-3.938,3.932-3.938h2.697v-5.385h-4.911
	c-6.021,0-8.589,2.569-8.589,8.592v4.421c0,0.547-0.443,0.99-0.99,0.99H33.45v5.384h3.429c0.547,0,0.99,0.443,0.99,0.99V62.522z"/>
</svg>
