<?xml version="1.0" encoding="utf-8"?>
<!-- Generator: Adobe Illustrator 15.1.0, SVG Export Plug-In . SVG Version: 6.00 Build 0)  -->
<!DOCTYPE svg PUBLIC "-//W3C//DTD SVG 1.1//EN" "http://www.w3.org/Graphics/SVG/1.1/DTD/svg11.dtd">
<svg version="1.1" id="Vrstva_1" xmlns="http://www.w3.org/2000/svg" xmlns:xlink="http://www.w3.org/1999/xlink" x="0px" y="0px"
	 width="85.04px" height="85.04px" viewBox="0 0 85.04 85.04" enable-background="new 0 0 85.04 85.04" xml:space="preserve">
<g>
	<path fill="#FFFFFF" d="M33.055,48.09c10.656,0,19.326-8.67,19.326-19.326S43.711,9.438,33.055,9.438
		c-10.655,0-19.325,8.669-19.325,19.326S22.4,48.09,33.055,48.09z M33.055,11.238c9.664,0,17.525,7.862,17.525,17.526
		S42.719,46.29,33.055,46.29c-9.663,0-17.524-7.862-17.524-17.525S23.392,11.238,33.055,11.238z"/>
	<path fill="#FFFFFF" d="M80.317,42.445c-1.053-1.054-2.762-1.055-3.818,0l-14.361,14.36c-0.812-4.365-4.642-7.684-9.239-7.684
		H13.213c-5.186,0-9.404,4.219-9.404,9.404v14.176c0,0.497,0.403,0.9,0.9,0.9s0.9-0.403,0.9-0.9V58.526
		c0-4.193,3.411-7.604,7.604-7.604h39.685c4.165,0,7.556,3.367,7.6,7.523L50.061,68.881L37.797,56.617
		c-1.054-1.054-2.763-1.056-3.818,0c-1.055,1.054-1.055,2.764,0,3.818l14.173,14.174c0.506,0.507,1.193,0.791,1.909,0.791
		s1.402-0.284,1.909-0.791l8.531-8.53v6.623c0,0.497,0.403,0.9,0.9,0.9s0.9-0.403,0.9-0.9v-8.424l18.015-18.015
		C81.372,45.209,81.372,43.5,80.317,42.445z"/>
</g>
</svg>
