<?xml version="1.0" encoding="utf-8"?>
<!-- Generator: Adobe Illustrator 15.1.0, SVG Export Plug-In . SVG Version: 6.00 Build 0)  -->
<!DOCTYPE svg PUBLIC "-//W3C//DTD SVG 1.1//EN" "http://www.w3.org/Graphics/SVG/1.1/DTD/svg11.dtd">
<svg version="1.1" id="Vrstva_1" xmlns="http://www.w3.org/2000/svg" xmlns:xlink="http://www.w3.org/1999/xlink" x="0px" y="0px"
	 width="85.04px" height="85.04px" viewBox="0 0 85.04 85.04" enable-background="new 0 0 85.04 85.04" xml:space="preserve">
<g>
	<path fill="#FFFFFF" d="M14,46.956c-0.497,0-0.9,0.403-0.9,0.9v11.34c0,0.497,0.403,0.9,0.9,0.9s0.9-0.403,0.9-0.9v-11.34
		C14.901,47.359,14.498,46.956,14,46.956z"/>
	<path fill="#FFFFFF" d="M19.669,46.956c-0.497,0-0.9,0.403-0.9,0.9v11.34c0,0.497,0.403,0.9,0.9,0.9s0.9-0.403,0.9-0.9v-11.34
		C20.57,47.359,20.167,46.956,19.669,46.956z"/>
	<path fill="#FFFFFF" d="M28.173,46.956c-0.497,0-0.9,0.403-0.9,0.9v11.34c0,0.497,0.403,0.9,0.9,0.9s0.9-0.403,0.9-0.9v-11.34
		C29.074,47.359,28.67,46.956,28.173,46.956z"/>
	<path fill="#FFFFFF" d="M36.676,46.956c-0.497,0-0.9,0.403-0.9,0.9v11.34c0,0.497,0.403,0.9,0.9,0.9s0.9-0.403,0.9-0.9v-11.34
		C37.577,47.359,37.173,46.956,36.676,46.956z"/>
	<path fill="#FFFFFF" d="M42.345,46.956c-0.497,0-0.9,0.403-0.9,0.9v11.34c0,0.497,0.403,0.9,0.9,0.9s0.9-0.403,0.9-0.9v-11.34
		C43.246,47.359,42.842,46.956,42.345,46.956z"/>
	<path fill="#FFFFFF" d="M50.849,46.956c-0.497,0-0.9,0.403-0.9,0.9v11.34c0,0.497,0.403,0.9,0.9,0.9s0.9-0.403,0.9-0.9v-11.34
		C51.75,47.359,51.346,46.956,50.849,46.956z"/>
	<path fill="#FFFFFF" d="M56.517,46.956c-0.497,0-0.9,0.403-0.9,0.9v11.34c0,0.497,0.403,0.9,0.9,0.9s0.9-0.403,0.9-0.9v-11.34
		C57.417,47.359,57.014,46.956,56.517,46.956z"/>
	<path fill="#FFFFFF" d="M73.529,15.776H11.167c-3.622,0-6.569,2.947-6.569,6.57V62.03c0,3.623,2.947,6.57,6.569,6.57h62.362
		c3.622,0,6.569-2.947,6.569-6.57V22.346C80.098,18.724,77.151,15.776,73.529,15.776z M11.167,17.576h62.362
		c2.63,0,4.769,2.14,4.769,4.77v2.834H6.398v-2.834C6.398,19.716,8.537,17.576,11.167,17.576z M73.529,66.799H11.167
		c-2.63,0-4.769-2.139-4.769-4.77V39.354h71.899V62.03C78.297,64.661,76.159,66.799,73.529,66.799z"/>
</g>
</svg>
