<?xml version="1.0" encoding="utf-8"?>
<!-- Generator: Adobe Illustrator 15.1.0, SVG Export Plug-In . SVG Version: 6.00 Build 0)  -->
<!DOCTYPE svg PUBLIC "-//W3C//DTD SVG 1.1//EN" "http://www.w3.org/Graphics/SVG/1.1/DTD/svg11.dtd">
<svg version="1.1" id="Vrstva_1" xmlns="http://www.w3.org/2000/svg" xmlns:xlink="http://www.w3.org/1999/xlink" x="0px" y="0px"
	 width="396.851px" height="283.464px" viewBox="0 0 396.851 283.464" enable-background="new 0 0 396.851 283.464"
	 xml:space="preserve">
<g>
	
		<path fill="#142D48" stroke="#41C0F0" stroke-width="0.5" stroke-linecap="round" stroke-linejoin="round" stroke-miterlimit="10" d="
		M230.528,83.47c0.563,1.494,1.127,6.729-0.184,8.79c-1.307,2.054-0.744,2.617,0.563,3.36c1.311,0.751,1.87,2.62,1.87,4.116
		c0,1.494,0.936,1.313,1.123,4.49c0.184,3.177,0.936,5.418,2.058,6.729c0.877,1.024,0.716,2.597,0.254,3.778
		c1.569,1.158,3.33,2.277,4.875,2.828c3.9,1.396,5.296,2.508,5.566,3.9c0.286,1.394,3.627,3.904,4.464,1.952
		c0.833-1.944,3.06-0.833,4.733-0.833c1.675,0,1.952,1.948,2.222,3.06c0.282,1.114,4.179,0.563,5.579,1.393
		c1.389,0.837,1.944,3.9,3.896,5.015c1.952,1.111,3.614-1.393,5.015-0.556c1.39,0.834,5.016,1.667,7.242,0.834
		c2.222-0.834,3.618,0.833,6.403,0.56c2.777-0.282,6.404,0.829,7.237,1.666c0.442,0.438,2.797,0.876,4.94,1.197
		c0.556-1.143-0.523-4.667-0.352-5.535c0.184-0.933,6.729-6.729,7.852-8.04c1.122-1.306,2.809-1.306,3.74-2.988
		c0.938-1.687-2.618-7.108-3.365-8.23c-0.747-1.119-1.118-5.606-0.559-7.48c0.559-1.87-2.806-2.992-2.806-4.3
		c0-1.311,3.177-3.556,4.862-4.299c1.683-0.751,1.123-5.989-0.376-7.296c-1.497-1.311-2.24-3.736-1.31-6.357
		c0.935-2.613-5.605-4.671-6.545-4.671c-0.152,0-0.246-0.168-0.309-0.391c-5.841,1.083-20.793-0.474-21.923-0.924
		c-0.739-0.297-2.634-0.978-4.261-1.557c-0.743,1.236-2.288,2.371-4.612,2.371c-3.61,0-3.865-3.615-3.986-5.234
		c-0.117-1.62-14.584,1.373-18.452,5.234c-3.862,3.864-12.84,2.366-13.083,4.482c-0.188,1.542-1.533,2.34-2.409,1.909
		C230.431,82.821,230.419,83.172,230.528,83.47"/>
	
		<path fill="#142D48" stroke="#41C0F0" stroke-width="0.5" stroke-linecap="round" stroke-linejoin="round" stroke-miterlimit="10" d="
		M263.565,203.777c-0.333-1.679,5.031-9.385,6.369-9.385c1.114,0,1.533-7.41,1.06-11.26c-4.154-2.871-7.608-3.849-7.608-3.849
		s-11.165-0.552-13.027-1.299c-1.862-0.744-3.725,2.422-5.398,1.119c-1.675-1.299-4.1,0.367-3.725,2.234
		c0.372,1.857,3.908,2.979,3.908,5.769c0,2.79,7.077,6.89,6.889,8.376c-0.129,1.045,4.245,3.885,6.854,7.711
		c1.389,0.876,2.866,2.02,4.33,3.196C263.507,205.162,263.651,204.203,263.565,203.777"/>
	
		<path fill="#142D48" stroke="#41C0F0" stroke-width="0.5" stroke-linecap="round" stroke-linejoin="round" stroke-miterlimit="10" d="
		M252.032,195.483c0.188-1.486-6.889-5.586-6.889-8.376c0-2.789-3.536-3.911-3.908-5.771c-0.375-1.865,2.05-3.531,3.725-2.232
		c1.674,1.303,3.536-1.863,5.398-1.119c1.861,0.747,13.027,1.299,13.027,1.299s3.454,0.978,7.608,3.849
		c-0.09-0.774-0.219-1.421-0.391-1.807c-1.002-2.352,0-5.027-2.681-6.032c-1.381-0.517-1.955-2.903-2.198-5.102
		c-1.264,0.384-2.331,0.7-2.914,0.849c-2.227,0.556-6.96,0.274-8.634-1.952c-1.244-1.658-5.113-4.092-7.011-5.227
		c-0.779,0.681-3.748,3.224-5.043,3.377c-1.498,0.191-0.559,4.119-2.058,4.119c-1.494,0-2.617,2.613-2.992,3.739
		c-0.372,1.119-3.732-0.751-5.234-0.191c-1.068,0.407-4.221,0.896-5.942,1.146c0.263,1.705,0.16,3.591,1.521,3.591
		c2.246,0,6.361-0.242,6.482,2.746c0.117,2.989,5.484,9.601,7.472,11.846c1.995,2.246,6.486,1.745,6.733,3.615
		c0.254,1.87,3.493,3.614,7.236,3.865c1.014,0.066,2.234,0.653,3.544,1.479C256.277,199.368,251.903,196.528,252.032,195.483"/>
	
		<path fill="#142D48" stroke="#41C0F0" stroke-width="0.5" stroke-linecap="round" stroke-linejoin="round" stroke-miterlimit="10" d="
		M279.71,231.375c1.87-0.367,0.747-1.865,2.058-3.176c1.308-1.307,2.802-3.924,2.993-4.859c0.02-0.102,0.09-0.172,0.18-0.234
		c-2.539-1.905-4.314-3.274-4.877-5.234c-0.568-1.995,0.019-5.899,0.914-8.747c-1.451-1.033-5.907-4.111-7.308-4.111
		c-1.385,0-3.517,3.078-4.045,6.036c3.271,1.744,4.558,2.988,2.292,5.25c-2.362,2.37-2.863,10.348-0.25,12.464
		c2.492,2.019,3.208,6.024,5.617,7.166C277.966,233.918,278.478,231.634,279.71,231.375"/>
	
		<path fill="#142D48" stroke="#41C0F0" stroke-width="0.5" stroke-linecap="round" stroke-linejoin="round" stroke-miterlimit="10" d="
		M244.15,139.294c-2.227-2.512-7.793-2.512-7.793-2.512s-0.56,2.512-1.396,3.9c-0.7,1.166-4.746,1.15-7.339,0.45
		c-0.736,0.962-4.104,1.714-4.569,3.106c-0.563,1.687-4.675,0.751-3.364,5.234c1.307,4.49-2.055,2.996-3.364,2.433
		c-1.312-0.559-7.109,0.188-8.604,1.683c-1.498,1.498-3.555,1.118-4.866,0.375c-1.308-0.743-3.921-1.122-5.044,0.743
		c-1.123,1.874-3.179-1.486-4.867-1.306c-1.678,0.188-0.933,3.739-0.933,4.491c0,0.742,2.621,2.988,4.3,2.245
		c1.684-0.751,3.742,0.184,5.236,1.118c1.498,0.939,4.303-0.747,5.235-1.682c0.938-0.939,6.173-0.939,6.732-0.939
		c0.563,0,0.747,2.997,1.687,3.561c0.931,0.56,4.487,0.935,7.668,1.119c3.176,0.188,7.851,1.682,9.349,1.682
		c1.494,0,3.924-2.621,7.284-2.621c3.368,0,5.238-2.054,5.802-1.866c0,0,0.023,0.021,0.032,0.027
		c0.242-1.04,0.633-1.881,1.365-1.987c1.364-0.188,0.388-2.534,1.364-3.704c0.979-1.166-0.782-3.51,0.979-3.317
		c1.752,0.199,3.701,0.395,3.701-2.141c0-0.856,0.461-1.611,1.13-2.241c-1.929-2.703-3.313-7.022-3.313-7.022
		S246.384,141.798,244.15,139.294"/>
	
		<path fill="#142D48" stroke="#41C0F0" stroke-width="0.5" stroke-linecap="round" stroke-linejoin="round" stroke-miterlimit="10" d="
		M298.218,146.297c-0.646-0.211-1.354-0.657-1.976-1.205c-2.347-0.523-4.612-1.213-5.305-1.901
		c-1.389-1.393-6.955-2.229-7.796-2.508c-0.83-0.285-6.127,5.012-7.801,5.012c-1.671,0-8.912,0.837-8.912,2.781
		c0,1.952-8.903,2.238-11.415,0c-0.396-0.352-0.774-0.821-1.139-1.33c-0.669,0.631-1.13,1.385-1.13,2.241
		c0,2.535-1.949,2.34-3.701,2.141c-1.761-0.192,0,2.151-0.979,3.317c-0.978,1.17,0,3.517-1.364,3.704
		c-0.732,0.106-1.123,0.947-1.365,1.987c0.586,0.282,2.021,3.153,2.021,3.153s-0.074,0.07-0.191,0.172
		c1.897,1.135,5.767,3.568,7.011,5.227c1.674,2.227,6.407,2.508,8.634,1.952c2.229-0.552,11.701-3.618,11.701-3.618
		s2.229,0.833,3.618,1.106c0.328,0.071,1.217,0.216,2.371,0.388c0.681-0.704,2.773-1.307,5.007-3.545
		c2.617-2.616,6.545-11.97,7.664-12.714c1.122-0.751,4.119-2.433,5.613-3.552C300.275,147.979,299.908,146.861,298.218,146.297"/>
	
		<path fill="#142D48" stroke="#41C0F0" stroke-width="0.5" stroke-linecap="round" stroke-linejoin="round" stroke-miterlimit="10" d="
		M286.208,132.887c-2.785,0.273-4.182-1.394-6.403-0.56c-2.227,0.833-5.853,0-7.243-0.834c-1.399-0.837-3.062,1.667-5.014,0.556
		c-0.431-0.246-0.79-0.598-1.107-0.993c-1.666,0.923-3.67,2.296-4.886,4.021c-2.348,3.353-5.692,3.688-8.043,4.021
		c-0.955,0.141-1.742,1.35-2.344,2.726c0.767,1.977,2.171,5.165,3.846,6.651c2.512,2.238,11.415,1.952,11.415,0
		c0-1.944,7.241-2.781,8.912-2.781c1.674,0,6.971-5.297,7.801-5.012c0.841,0.278,6.407,1.115,7.795,2.508
		c0.693,0.688,2.958,1.377,5.306,1.901c-0.985-0.868-1.765-1.987-1.765-2.91c0-1.491,2.813-5.419,3.74-6.166
		c0.079-0.063,0.117-0.172,0.168-0.266c-2.144-0.321-4.498-0.76-4.94-1.197C292.612,133.716,288.985,132.605,286.208,132.887"/>
	
		<path fill="#142D48" stroke="#41C0F0" stroke-width="0.5" stroke-linecap="round" stroke-linejoin="round" stroke-miterlimit="10" d="
		M50.145,252.45c3.333-0.605-0.914-3.337-1.827-4.244c-0.91-0.912,0.303-4.554,2.126-4.554c1.817,0,0-2.12-2.429-4.554
		c-2.426-2.425,0-3.333,2.13-3.333c2.116,0-0.611-3.642,1.506-5.766c2.126-2.129-0.607-6.064-0.607-7.888
		c0-1.814,3.036-2.425,5.465-4.851c2.424-2.43-2.121-1.518-2.121-3.333c0-1.822-3.04-2.434-5.157-0.911c-2.13,1.521-1.52,0-3.338,0
		c-1.824,0-5.161,0.606-5.161-1.217c0-1.827-1.516-2.12-3.031-0.306c-0.447,0.54-1.211,0.826-2.244,0.955
		c-0.221,2.378-0.467,4.597,0.229,5.719c1.618,2.618-1.999,16.455-5.238,20.194c-3.243,3.74-0.117,4.741,3.239,7.357
		c3.368,2.618,1.126,12.093,1.126,14.335c0,2.245,2.991,1.623,6.481,1.623c2.079,0,4.426-0.923,6.732-1.33
		c-0.682-1.04-1.224-2.065-1.224-2.742C46.802,255.783,46.802,253.056,50.145,252.45"/>
	
		<path fill="#142D48" stroke="#41C0F0" stroke-width="0.5" stroke-linecap="round" stroke-linejoin="round" stroke-miterlimit="10" d="
		M148.096,110.499c1.524-1.521,4.19-0.763,5.718,0.763c1.524,1.525,3.81,1.901,6.098,4.186c0.587,0.595,1.221,1.127,1.839,1.601
		c0.217-1.608,0.259-4.809,0.967-6.463c0.745-1.741-0.75-3.99,0.5-3.99c1.24,0,4.734,0,4.734-2.241c0-2.242,0.999-1.495,1.748-2.747
		c0.751-1.244-2.243-3.739-2.748-4.49c-0.491-0.744,2.246-0.994,4.245-3.979c0.719-1.091,0.42-3.313-0.247-5.715
		c-0.33,0.884-0.999,1.525-2.125,0.849c-1.873-1.123-4.73-0.496-8.474,0.251c-3.74,0.748-4.861,4.361-3.498,5.855
		c1.375,1.503-3.609,2.246-3.98,0.255c-0.378-2.003-4.113-0.626-3.871,1.991c0.254,2.617-4.115,3.614-3.863,6.854
		c0.254,3.246-3.989,6.234-6.733,7.854c-0.426,0.259-0.868,0.517-1.318,0.774c1.379,0.634,2.482,1.057,3.006,1.057
		C142.383,113.163,146.573,112.028,148.096,110.499"/>
	
		<path fill="#142D48" stroke="#41C0F0" stroke-width="0.5" stroke-linecap="round" stroke-linejoin="round" stroke-miterlimit="10" d="
		M162.275,124.993c-1.663,0.931-3.179,2.926-2.948,7.158c1.621-0.046,3.906,0.141,5.561,0.626c-0.401-4.608-2.203-6.036-2.666-6.986
		C162.087,125.532,162.132,125.262,162.275,124.993"/>
	
		<path fill="#142D48" stroke="#41C0F0" stroke-width="0.5" stroke-linecap="round" stroke-linejoin="round" stroke-miterlimit="10" d="
		M132.55,115.627c0.184,1.313,2.243,4.49,2.989,3.184c0.749-1.311,2.621,1.683,4.301,2.617c1.682,0.936,5.046,2.058,5.234,3.181
		c0.188,1.119,0.749,3.552,2.434,2.805c1.682-0.751,3.737-3.368,3.737-1.873c0,1.494,0.562,4.303,2.43,3.928
		c1.872-0.376,2.433,3.181,4.305,2.801c0.341-0.06,0.806-0.102,1.347-0.118c-0.23-4.232,1.285-6.228,2.949-7.158
		c0.385-0.744,1.507-1.526,1.688-2.441c0.25-1.244-2.491-3.74-2.246-5.234c0.014-0.078,0.025-0.184,0.033-0.27
		c-0.618-0.474-1.252-1.006-1.839-1.601c-2.288-2.284-4.574-2.66-6.098-4.186c-1.528-1.525-4.194-2.285-5.718-0.763
		c-1.524,1.529-5.713,2.664-8.002,2.664c-0.524,0-1.627-0.423-3.006-1.056c-1.802,1.036-3.719,2.025-5.628,2.409
		C131.84,115.037,132.426,114.762,132.55,115.627"/>
	
		<path fill="#142D48" stroke="#41C0F0" stroke-width="0.5" stroke-linecap="round" stroke-linejoin="round" stroke-miterlimit="10" d="
		M348.464,177.152c-1.744-0.247-3.994-0.99-3.243-1.992c0.047-0.063,0.148-0.188,0.224-0.285c-2.336-1.89-2.95-8.004-1.459-9.498
		c1.9-1.905-3.056-9.146-5.337-11.811c-1.071-1.256-3.392-5.422-5.559-9.507c-1.979,0.643-3.731,1.363-4.072,1.934
		c-0.747,1.239-3.247,2.495-4.737,2.495c-1.495,0-2.993-0.751-4.241,0.493s-2.988,1.745-3.739,1.001
		c-0.747-0.751-3.243-1.494-4.992-1.494c-1.737,0-7.222-1.502-8.469-1.502c-0.74,0-1.941,0.103-3.248,0.281
		c0.282,0.54,0.063,1.186-0.806,1.839c-1.494,1.119-4.491,2.801-5.613,3.552c-1.119,0.744-5.047,10.099-7.664,12.714
		c-2.617,2.618-5.051,2.993-5.238,3.924c-0.188,0.936,2.993,3.369,2.993,4.863c0,1.502,0.743,2.993,2.805,2.993
		c2.058,0-0.188,4.862,1.118,5.237c1.315,0.372,9.351,0.932,9.351,2.806c0,1.455,0.888,2.68,0.5,3.688
		c2.262,0.376,3.92,3.45,4.805,3.231c0.998-0.25,7.729,1.244,8.974,0.997c1.244-0.25,6.983,0,8.979,0.247
		c1.991,0.251,4.233-0.747,5.978-2.492c1.749-1.748,7.988-1.995,9.979-1.748c1.987,0.254,5.981,0.751,6.732,2.003
		c0.392,0.649,2.738,1.627,5.113,2.426c0.281-1.236-0.082-2.849-0.008-4.429c0.125-2.617,1.619-6.604,4.237-6.854
		c2.617-0.25,4.737-0.25,4.365-4.608c-0.008-0.152-0.008-0.266-0.02-0.402c-1.326-1.135-2.566-2.094-2.974-2.094
		C352.204,175.16,349.207,177.256,348.464,177.152"/>
	
		<path fill="#142D48" stroke="#41C0F0" stroke-width="0.5" stroke-linecap="round" stroke-linejoin="round" stroke-miterlimit="10" d="
		M351.954,150.726c-1.002-3.239-4.233-4.491-5.985-4.491c-1.745,0-4.738-3.982-6.733-3.74c-1.083,0.137-3.779,0.79-6.146,1.564
		c2.167,4.085,4.487,8.251,5.559,9.507c2.281,2.664,7.237,9.905,5.336,11.811c-1.49,1.495-0.876,7.608,1.46,9.498
		c1.083-1.412,4.761-6.044,4.761-7.444c0-1.494,0.254-4.491,3.239-3.74c2.996,0.747,5.734,1.995,5.734,0.998
		c0-0.998-0.747-4.237-1.991-5.489C355.944,157.959,352.955,153.969,351.954,150.726"/>
	
		<path fill="#142D48" stroke="#41C0F0" stroke-width="0.5" stroke-linecap="round" stroke-linejoin="round" stroke-miterlimit="10" d="
		M335.75,189.119c-1.991-0.247-8.23,0-9.979,1.748c-1.745,1.745-3.986,2.743-5.978,2.492c-1.995-0.247-7.734-0.497-8.979-0.247
		c-1.244,0.247-7.976-1.247-8.974-0.997c-0.885,0.219-2.543-2.855-4.805-3.231c-0.113,0.282-0.309,0.548-0.685,0.798
		c-1.682,1.127-1.874,4.108,0,5.798c1.866,1.683,4.3,5.422,2.617,5.422c-1.678,0-2.992,2.242-2.805,3.364
		c0.188,1.127-0.563,3.553,0,4.116c0.563,0.559,4.487,4.303,4.671,5.422c0.168,0.986,1.776,1.498,1.655,2.362
		c3.141-0.234,9.804-0.618,11.313,0.134c1.995,1.001,8.981,1.494,8.981,1.494c1.987,0,3.735-0.747,3.239-1.991
		c-0.422-1.053,2.176-1.749,4.05-1.944c-0.325-1.15-0.548-2.097-0.063-2.301c0.931-0.371,6.36-1.118,8.598,0
		c1.139,0.575,2.422,0.032,3.407-0.634c-0.297-1.048-0.587-1.877-1.162-1.983c-1.376-0.246-3.484-5.98-1.744-6.356
		c1.744-0.372,3.99-6.36,6.732-7.229c1.092-0.344,1.558-1.002,1.753-1.808c-2.375-0.798-4.722-1.775-5.113-2.425
		C341.731,189.87,337.737,189.373,335.75,189.119"/>
	
		<path fill="#142D48" stroke="#41C0F0" stroke-width="0.5" stroke-linecap="round" stroke-linejoin="round" stroke-miterlimit="10" d="
		M284.94,223.106L284.94,223.106c0.078-0.059,0.188-0.102,0.321-0.141c0.023-0.004,0.039-0.016,0.07-0.023
		c0.133-0.031,0.298-0.052,0.469-0.065c0.024-0.009,0.052-0.009,0.071-0.009c0.728-0.063,1.701-0.02,2.703-0.051
		c0.059-0.004,0.133-0.004,0.203-0.004c0.224-0.012,0.442-0.027,0.669-0.043c0.086-0.016,0.172-0.016,0.262-0.024
		c0.29-0.039,0.575-0.086,0.845-0.156c2.241-0.556,2.806-2.988,3.924-2.429c1.123,0.56,7.108-2.491,7.856-3.611
		c0.098-0.133,0.141-0.258,0.156-0.384c0.121-0.864-1.488-1.376-1.655-2.362c-0.184-1.119-4.107-4.863-4.671-5.422
		c-0.118-0.117-0.164-0.329-0.188-0.579c0-0.023-0.012-0.047-0.012-0.07c-0.016-0.267,0-0.575,0.035-0.912
		c-5.849,0.849-14.525,2.656-14.525,2.656s-0.211-0.156-0.497-0.352c-0.896,2.848-1.482,6.753-0.915,8.747
		C280.626,219.832,282.401,221.201,284.94,223.106"/>
	
		<path fill="#142D48" stroke="#41C0F0" stroke-width="0.5" stroke-linecap="round" stroke-linejoin="round" stroke-miterlimit="10" d="
		M303.965,52.189c2.284,0,7.629,1.143,10.676,0c3.044-1.142,3.044,2.293,4.953,1.901c1.901-0.379,5.715,2.293,8.004,4.203
		c1.216,1.012,2.664,1.822,4.268,2.753c0.364-0.622,0.856-1.236,1.64-1.823c1.995-1.494,3.986-0.751,5.73-0.751
		c1.749,0,1.995-1.991,3.247-2.989c0.7-0.563,1.792-0.884,2.621-1.056c-0.669-1.377-0.704-4.068-1.815-5.179
		c-1.31-1.307-3.18-3.556-2.617-4.863c0.56-1.311,0.56-3.18-0.938-4.675c-0.653-0.653-1.154-1.42-1.424-2.151
		c-3.04-0.392-7.132-0.829-8.047-0.525c-1.499,0.501-7.477-4.241-8.478-4.991c-0.653-0.486-5.091-0.231-9.084,0.141
		c-2.3,2.55-0.642,4.424-0.763,8.34c-0.125,3.99-4.492,3.243-6.854,3.243c-2.375,0-6.24-7.108-7.48-8.732
		c-1.252-1.616-5.246,1.999-8.109,3.74c-2.867,1.749-1.369,5.113-3.364,6.733c-1.991,1.619-3.239,4.366-1.252,7.981
		c0.082,0.148,0.137,0.301,0.216,0.445c2.491-0.195,5.147-0.657,6.678-1.745C294.439,50.28,301.685,52.189,303.965,52.189"/>
	
		<path fill="#142D48" stroke="#41C0F0" stroke-width="0.5" stroke-linecap="round" stroke-linejoin="round" stroke-miterlimit="10" d="
		M289.807,65.889c0.936,1.314,3.929,2.434,5.051,1.874c1.119-0.56,4.671,1.307,4.671,2.802c0,1.498-0.931,5.988,0,5.988
		c0.85,0,6.236,1.671,6.604,3.924c2.414,0.059,5.156,0.182,6.182,0.438c1.999,0.497,3.239-0.747,4.232-1.995
		c1.001-1.248,4.487-1.745,5.484-1.745c1.002,0,1.002-2.742,1.248-3.994c0.251-1.24,2.746-3.485,4.241-3.982
		c1.498-0.496,1.243-2.245,2.742-2.245c1.498,0,1.244-1.999,0.997-3.247c-0.148-0.755,0.026-1.702,0.606-2.66
		c-1.604-0.931-3.052-1.741-4.268-2.754c-2.289-1.909-6.104-4.581-8.004-4.202c-1.909,0.392-1.909-3.043-4.953-1.901
		c-3.047,1.143-8.392,0-10.676,0c-2.28,0-9.525-1.909-12.193,0c-1.53,1.088-4.187,1.55-6.678,1.745
		c1.701,3.481,1.079,7.003-0.834,9.154c-1.357,1.533-0.567,1.736,0.427,2.339C286.736,65.236,289.056,64.84,289.807,65.889"/>
	
		<path fill="#142D48" stroke="#41C0F0" stroke-width="0.5" stroke-linecap="round" stroke-linejoin="round" stroke-miterlimit="10" d="
		M196.31,160.138c-1.679,0.743-4.3-1.503-4.3-2.245c0-0.521-0.344-2.383,0.008-3.545c-1.393-0.712-3.384-1.682-4.87-2.124
		c-2.494-0.747-3.738-0.747-5.729,0.246c-1.274,0.634-4.785,0.458-7.155,0.25c-0.21,0.744-0.544,1.244-1.139,1.244
		c-1.684,0-3.928,1.683-4.301,3.557c-0.372,1.866-4.3,3.36-5.426,6.729c-1.119,3.368-0.558,4.862,1.126,2.805
		c1.682-2.058,3.74-1.307,3.74,0.376c0,1.682,2.244,1.865,1.495,4.115c-0.012,0.051-0.012,0.078-0.022,0.133
		c2.557-0.227,6.111-0.509,7.193-0.509c1.744,0,3.489-5.484,4.234-5.985c0.746-0.496,2.749,3.991,4.744,5.743
		c1.991,1.745,2.243-1.502,2.243-2.997c0-1.498,1.745-1.994,2.991-1.744c1.244,0.246,3.988,0.747,3.988-1.002
		c0-1.736,1.501-0.993,2.49-0.993c1,0,1.254-1.995,1.254-1.995l1.631-1.518C199.177,160.005,197.63,159.551,196.31,160.138"/>
	
		<path fill="#142D48" stroke="#41C0F0" stroke-width="0.5" stroke-linecap="round" stroke-linejoin="round" stroke-miterlimit="10" d="
		M171.196,93.136c-1.999,2.985-4.735,3.235-4.244,3.979c0.504,0.751,3.499,3.247,2.748,4.491c-0.749,1.252-1.749,0.505-1.749,2.746
		c0,2.242-3.493,2.242-4.734,2.242c-1.25,0,0.245,2.249-0.5,3.99c-0.75,1.744-0.75,5.234-1,6.732
		c-0.244,1.494,2.497,3.99,2.246,5.234c-0.247,1.252-2.246,2.245-1.741,3.239c0.463,0.949,2.265,2.378,2.666,6.986
		c0.861,0.251,1.565,0.575,1.876,0.994c1.126,1.494,2.995,2.613,5.422,2.613c2.433,0,3.368,1.689,4.489,1.498
		c1.123-0.184,4.117,0.755,1.688,2.809c-2.433,2.054-2.809,4.487-3.366,6.917c-0.364,1.576-0.344,3.76-0.734,5.112
		c2.371,0.208,5.882,0.384,7.156-0.25c1.991-0.993,3.235-0.993,5.729-0.246c1.486,0.442,3.477,1.412,4.87,2.124
		c0.153-0.501,0.419-0.884,0.925-0.946c1.688-0.181,3.744,3.18,4.867,1.306c1.123-1.865,3.739-1.486,5.044-0.743
		c1.311,0.743,3.368,1.123,4.866-0.375c1.496-1.494,7.292-2.241,8.604-1.683c1.31,0.563,4.671,2.058,3.364-2.433
		c-1.311-4.484,2.801-3.548,3.364-5.234c0.559-1.683,5.422-2.426,4.675-3.736c-0.748-1.311-6.917-5.238-8.787-6.545
		c-1.869-1.311-1.869-5.43-2.809-7.104c-0.931-1.686-2.992-3.928-0.56-4.49c2.43-0.563,6.732-1.494,8.791-3.364
		c2.054-1.874,5.793-2.059,6.916-3.181c1.123-1.123,3.74,0.935,4.487-0.191c0.751-1.119,1.307-3.365,0.191-4.671
		c-1.122-1.312-1.874-3.553-2.058-6.729c-0.188-3.177-1.123-2.996-1.123-4.49c0-1.496-0.56-3.365-1.87-4.116
		c-1.307-0.743-1.869-1.307-0.563-3.36c1.311-2.063,0.748-7.296,0.184-8.79c-0.109-0.298-0.098-0.649-0.035-1.025
		c-0.337-0.156-0.603-0.484-0.708-1.032c-0.376-1.995-1.741-2.742-4.985-2.742c-3.242,0,1.992-3.243,0.744-4.863
		c-1.239-1.615-4.486,2.989-7.472,1.991c-2.997-0.989-6.857,3.497-9.475,5.488c-2.621,1.999-6.361-0.371-4.366-3.243
		c1.991-2.863,0-2.616-2.994-1.49c-2.993,1.119-6.606-0.25-6.234-2.996c0.095-0.688-0.125-1.334-0.491-1.941
		c-1.462,0.204-2.584,0.25-3.12,0.071c-1.34-0.442-4.38-0.685-7.696-0.751c0.991,1.451,2.065,2.871,1.458,3.994
		c-1.119,2.124,0.63,4.119,2.244,7.229c1.622,3.122-3.486,1.372-3.613,3.368c-0.127,1.995-4.734-0.125-6.234-0.876
		c-1.49-0.745-6.482-0.247-6.355,1.001c0.049,0.497-0.029,1.182-0.246,1.769C171.617,89.823,171.917,92.045,171.196,93.136"/>
	
		<path fill="#142D48" stroke="#41C0F0" stroke-width="0.5" stroke-linecap="round" stroke-linejoin="round" stroke-miterlimit="10" d="
		M176.675,137.882c-1.121,0.191-2.056-1.498-4.489-1.498c-2.428,0-4.296-1.119-5.422-2.613c-1.123-1.502-6.913-1.869-8.785-1.502
		c-1.872,0.379-2.433-3.177-4.305-2.801c-1.868,0.375-2.429-2.434-2.429-3.928c0-1.495-2.056,1.122-3.738,1.873
		c-1.684,0.747-2.246-1.686-2.434-2.804c-0.187-1.124-3.552-2.246-5.234-3.182c-1.68-0.935-3.552-3.928-4.301-2.617
		c-0.746,1.307-2.805-1.87-2.989-3.184c-0.123-0.865-0.71-0.591-1.09-1.111c-0.639,0.133-1.273,0.211-1.905,0.18
		c-2.993-0.125-5.61,2.245-5.107,7.237c0.495,4.98-3.62,5.48-8.731,5.853c-5.112,0.375-3.363,4.366-5.481,5.985
		c-2.12,1.627-9.6-0.868-10.6-3.606c-0.999-2.743-7.724,0-4.861,3.23c2.872,3.247,2.741,7.734,1.123,8.979
		c-1.619,1.248-5.117-1.991-7.36-0.376c-2.242,1.624-2.367-1.494-5.103-2.483c-2.745-1.006-3.872,1.236-8.229,0.868
		c-4.37-0.38-6.86,2.112-5.239,3.986c1.618,1.867-0.25,3.61,0.996,5.238c1.25,1.619,6.983,1.365,11.218,3.614
		c4.242,2.238,5.234,0.368,7.357,1.995c2.12,1.62,2.621,0.618,2.743,3.74c0.128,3.114,2.494,6.103,6.61,7.229
		c4.111,1.122,0.996,3.865,2.246,6.607c1.239,2.742-1.872,6.729-1.25,10.097c0.626,3.364-1.995,14.209-3.989,15.206
		c-0.127,0.066-0.332,0.066-0.497,0.098c1.868,0.932,3.834,1.745,4.792,2.379c1.824,1.221,5.759,2.425,8.192,3.943
		c2.424,1.521,6.673,1.221,6.673-0.61c0-1.812,2.423-0.595,3.943,0.915c1.516,1.519,7.282,1.823,10.011,2.426
		c2.3,0.509,5.658,0.188,8.661,0.25c-0.117-0.681-0.27-1.389-0.507-2.163c-1.496-4.866,2.862-7.733,6.973-8.36
		c4.114-0.618,13.092,1.87,15.467,3.365c2.362,1.498,5.607,1.126,9.723-3.239c2.071-2.207,3.775-3.005,5.279-3.438
		c0.11-0.979,0.619-1.977,0.947-2.853c0.565-1.502-2.056-1.127-3.924-1.314c-1.872-0.188-3.178-2.058-1.872-4.115
		c1.311-2.058-1.118-2.246-2.429-4.3c-1.31-2.053,0.561-1.494,1.68-2.053c1.121-0.564,2.621-2.81,1.682-3.365
		c-0.933-0.563-1.682-1.87-0.933-4.115c0.75-2.25-1.494-2.434-1.494-4.115c0-1.683-2.058-2.434-3.74-0.376
		c-1.684,2.058-2.245,0.563-1.127-2.805c1.127-3.368,5.055-4.862,5.427-6.729c0.373-1.874,2.616-3.557,4.301-3.557
		c1.684,0,1.307-3.928,1.872-6.356c0.557-2.43,0.933-4.863,3.366-6.917C180.792,138.637,177.797,137.699,176.675,137.882
		 M190.02,201.339c-1.375-0.125-1.749,2.363-5.235,4.491c-3.489,2.12,0.026,11.688,3.486,11.216
		C191.888,216.549,191.389,201.464,190.02,201.339"/>
	
		<path fill="#142D48" stroke="#41C0F0" stroke-width="0.5" stroke-linecap="round" stroke-linejoin="round" stroke-miterlimit="10" d="
		M137.672,207.497c-3.002-0.062-6.361,0.259-8.661-0.25c-2.729-0.603-8.495-0.907-10.011-2.426c-1.52-1.51-3.943-2.727-3.943-0.915
		c0,1.831-4.249,2.132-6.673,0.61c-2.433-1.519-6.368-2.723-8.191-3.943c-0.959-0.634-2.925-1.447-4.792-2.379
		c-2.531,0.493-9.796-2.179-14.588-1.592c-5.111,0.622-21.446-0.752-27.803-0.247c-6.355,0.493-6.733-2.616-10.222-2.616
		c-3.49,0-1.991,4.229-6.979,4.357c-4.988,0.129-5.479,3.243-1.872,6.115c2.059,1.635,1.811,5.077,1.52,8.238
		c1.032-0.129,1.797-0.415,2.243-0.955c1.516-1.814,3.032-1.521,3.032,0.306c0,1.823,3.337,1.218,5.16,1.218
		c1.819,0,1.209,1.521,3.339,0c2.116-1.523,5.156-0.912,5.156,0.91c0,1.815,4.546,0.903,2.122,3.333
		c-2.429,2.426-5.465,3.036-5.465,4.851c0,1.823,2.732,5.759,0.607,7.888c-2.117,2.124,0.61,5.766-1.506,5.766
		c-2.131,0-4.556,0.908-2.131,3.333c2.43,2.434,4.247,4.554,2.43,4.554c-1.823,0-3.036,3.642-2.126,4.554
		c0.913,0.907,5.159,3.639,1.827,4.244c-3.344,0.606-3.344,3.333-3.344,5.156c0,0.677,0.542,1.702,1.225,2.742
		c1.549-0.273,3.077-0.32,4.485,0.337c3.49,1.615,5.513,10.304,10.223,9.718c1.999-0.251,0.999-1.745,1.999-2.747
		c0.999-0.993,2.863-0.242,4.862-0.242c1.989,0,2.993-2.871,7.724-2.993c4.738-0.121,7.732-0.504,10.721-0.375
		c2.995,0.121,5.361-0.877,6.107-2.993c0.747-2.12,3.245-3.986,6.611-4.486c3.367-0.497,2.868-3.995,3.112-5.982
		c0.255-1.994,5.866-4.991,6.234-6.485c0.378-1.498-3.243-7.229,0.123-12.343c3.366-5.109,6.987-5.355,6.987-8.227
		c0-2.629,3.486-3.611,7.728-4.12c4.241-0.488,5.612-3.36,9.229-4.854C137.201,213.294,138.282,211.057,137.672,207.497"/>
	
		<path fill="#142D48" stroke="#41C0F0" stroke-width="0.5" stroke-linecap="round" stroke-linejoin="round" stroke-miterlimit="10" d="
		M130.878,237.004c0.634,4.03,7.504-1.438,5.963-2.565C133.698,232.156,130.245,232.973,130.878,237.004"/>
	
		<path fill="#142D48" stroke="#41C0F0" stroke-width="0.5" stroke-linecap="round" stroke-linejoin="round" stroke-miterlimit="10" d="
		M219.047,174.229c2.011-0.81,4.275-1.135,5.383-0.688c0.974,0.392,1.291,1.416,1.467,2.512c1.722-0.25,4.874-0.739,5.942-1.146
		c1.502-0.56,4.862,1.311,5.234,0.191c0.375-1.126,1.498-3.739,2.992-3.739c1.499,0,0.56-3.928,2.058-4.119
		c1.495-0.185,5.234-3.549,5.234-3.549s-1.494-2.988-2.054-3.181c-0.563-0.188-2.434,1.866-5.802,1.866
		c-3.36,0-5.789,2.621-7.284,2.621c-1.498,0-6.173-1.494-9.349-1.682c-1.123-0.063-2.293-0.157-3.381-0.271
		C219.18,165.873,218.839,170.231,219.047,174.229"/>
	
		<path fill="#142D48" stroke="#41C0F0" stroke-width="0.5" stroke-linecap="round" stroke-linejoin="round" stroke-miterlimit="10" d="
		M330.074,213.858c-1.874,0.195-4.472,0.892-4.05,1.944c0.497,1.244-1.252,1.991-3.239,1.991c0,0-6.986-0.493-8.982-1.494
		c-1.509-0.752-8.172-0.368-11.313-0.134c-0.016,0.126-0.059,0.251-0.156,0.384c-0.747,1.119-6.733,4.171-7.856,3.611
		c-1.118-0.56-1.682,1.874-3.925,2.429c-2.244,0.563-5.608-0.188-5.792,0.751c-0.191,0.936-1.686,3.553-2.993,4.859
		c-1.311,1.311-0.188,2.809-2.058,3.176c-1.232,0.259-1.744,2.543-2.426,4.554c0.122,0.063,0.235,0.148,0.368,0.192
		c2.738,0.868,4.858,4.115,4.487,7.226c-0.372,3.121,3.99,4.248,5.985,1.995c1.991-2.238,7.604,1.251,7.604,2.746
		c0,1.494-5.734-1.62-8.981,0.751c-3.236,2.362,2.496,4.608,1.753,7.104c-0.755,2.496,1.494,5.978,4.361,5.859
		c2.871-0.121,6.106,4.613,7.852,3.736c1.749-0.868-2.117-7.476-1.494-8.474c0.625-0.997,4.111,1.745,5.856-0.254
		c1.748-1.991-1.244-3.485-3.861-3.364c-2.618,0.125-0.125-3.489,2.992-1.619c3.114,1.865,4.612-0.497,6.104-0.752
		c1.493-0.25,1.87-5.605-2.743-6.854c-4.604-1.244-3.986,3.372-6.982,0.242c-2.988-3.105,2.746-1.865,2.746-4.483
		c0-2.617-4.612-6.356-6.857-9.475c-2.242-3.11,3.121-4.608,4.361-2.362c1.252,2.241,4.612,1.869,6.732,0.993
		c2.129-0.868-2.241-4.862,1.62-6.356c3.869-1.499,3.869,1.122,5.116,1.623c1.244,0.493,2.367-3.122,6.354-3.122
		c2.077,0,3.916,1.377,5.696,2.707c1.084-1.192,1.972-1.882,1.972-2.895c0-1.307,2.434-1.87,2.434-3.928
		C330.759,216.181,330.371,214.938,330.074,213.858"/>
	
		<path fill="#142D48" stroke="#41C0F0" stroke-width="0.5" stroke-linecap="round" stroke-linejoin="round" stroke-miterlimit="10" d="
		M55.485,80.614c-1.048-0.782-2.031-1.635-2.79-2.534c-3.201-3.768-4.526-0.752-4.894,1.51c-0.385,2.261-3.391-0.755-5.279-1.127
		c-1.879-0.383,0.566-3.959,1.888-4.905c0.88-0.626,1.752-2.371,2.294-4.804c-0.352,0-0.704-0.047-1.045-0.181
		c-3.488-1.369-8.355-1.369-8.477,1.745c-0.127,3.117,3.862,1.995,3.989,3.986c0.123,1.999-3.989,1.494-6.86,3.493
		c-2.864,1.995-5.984-1.369-8.974,0.126c-2.995,1.494,3.239,3.246,0.995,6.36c-2.245,3.118,0.124,2.989,3.865,5.981
		c3.741,2.993-2.243,3.74-2.243,7.108c0,3.36-4.612,3.239-5.612,5.484c-0.989,2.245,3.99,6.729,8.356,6.729
		c3.116,0,10.346-1.994,14.588-5.981c4.235-3.99,6.481-0.129,10.342-2.116c3.87-1.995,1.496-16.579,0-19.575
		C55.365,81.381,55.372,80.974,55.485,80.614"/>
	
		<path fill="#142D48" stroke="#41C0F0" stroke-width="0.5" stroke-linecap="round" stroke-linejoin="round" stroke-miterlimit="10" d="
		M57.254,67.079c-3.154-3.043-7.217,1.729-10.55,1.675c-0.542,2.433-1.415,4.178-2.295,4.804c-1.322,0.946-3.767,4.522-1.888,4.906
		c1.888,0.371,4.894,3.387,5.28,1.126c0.367-2.262,1.692-5.277,4.894-1.51c0.759,0.899,1.741,1.752,2.789,2.534
		c0.516-1.709,4.456-2.003,6.5-4.061C64.479,74.057,60.745,70.443,57.254,67.079 M125.439,97.992
		c0.254-3.74-7.975-6.354-8.851-4.366c-0.872,1.995-2.74,1.753-4.117-0.489c-1.368-2.249,1.254-4.369-0.118-4.615
		c-1.377-0.251-3.117-3.368-2.74-4.613c0.374-1.243-2.122-9.224-6.361-10.222c-4.239-0.998-4.861-6.982-5.606-10.222
		c-0.751-3.239-3.5-1.503-5.612-4.241c-2.122-2.742-5.739-1.369-7.609-1.244c-1.867,0.125,0-3.497,2.989-5.484
		c2.995-1.995,6.488-12.597,6.488-14.71c0-2.124-13.09-2.003-15.583-0.751c-2.496,1.244-4.987-1.87-2.872-2.746
		c2.121-0.868,6.61-5.234,6.361-6.979c-0.247-1.744,3.12-3.364,1.248-4.988c-1.868-1.615-2.12,2.125-3.74,3.369
		c-1.617,1.248-5.238,0.876-9.103,0.125c-3.863-0.751-5.358,4.733-5.235,7.104c0.127,2.371-4.488,3.74-3.743,5.735
		c0.749,1.995-0.869,3.489-2.113,2.363c-1.246-1.119-2.617-3.861-5.113-1.866c-2.497,1.999,2.867,4.616,6.103,4.996
		c3.245,0.367-2.486,2.738-3.112,6.22c-0.622,3.497,4.235,2.003,4.489,4.491c0.255,2.495-6.983,2.871-6.983,5.233
		c0,2.379,4.115-1.118,5.984-2.112c1.872-1.001-0.993,5.853,3.497,5.109c4.485-0.75,3.235-6.854,4.856-6.607
		c1.624,0.247-0.744,3.239,0.629,5.857c1.363,2.616-3.246,6.61-2.995,8.48c0.246,1.869,9.225,1.869,12.09-1.123
		c2.871-2.992,4.235,0.251,2.245,2.496c-1.991,2.241-1.122,4.361,1.375,5.238c2.491,0.868,3.369,1.118,2.246,3.105
		c-1.123,2.003-0.131,5.735-0.755,7.605c-0.622,1.87-8.35,1.623-8.6,0.38c-0.249-1.248-3.494-0.38-2.614,1.365
		c0.868,1.752-2.748,3.619-2.498,5.242c0.255,1.627,4.863,1.243,4.985,3.242c0.123,1.991-3.367,4.358-8.097,5.731
		c-4.743,1.369,0.992,5.113,3.236,3.489c2.243-1.619,1.748,1.119,4.988,1.119c3.241,0,5.244,2.621,8.851,1.253
		c3.616-1.374,3.493,0,0.749,2.115c-2.745,2.124-6.856-0.121-9.35,1.248s-12.636,10.88-10.719,13.219
		c1.123,1.365,2.613-1.995,6.226-3.493c3.62-1.495,4.239,0.993,6.242,1.243c1.991,0.255,2.114-4.111,3.735-3.739
		c1.622,0.376,3.117-1.369,6.107-0.869c2.993,0.497,5.115-0.625,6.61-1.869c1.496-1.244,5.48,2.487,6.734,1.619
		c1.24-0.876,6.729-1.874,9.473-1.753c2.735,0.134,9.847-3.113,11.713-4.858c1.872-1.744-1.121-2.112-3.611-1.744
		c-2.496,0.379-1.999-2.492,0.622-4.984C121.078,103.605,125.192,101.731,125.439,97.992 M50.52,35.411
		c3.369-0.121,7.23-5.857,5.613-7.484C54.511,26.312,48.015,35.501,50.52,35.411"/>
	
		<path fill="#142D48" stroke="#41C0F0" stroke-width="0.5" stroke-linecap="round" stroke-linejoin="round" stroke-miterlimit="10" d="
		M57.254,67.079c-3.154-3.043-7.217,1.729-10.55,1.675c-0.542,2.433-1.415,4.178-2.295,4.804c-1.322,0.946-3.767,4.522-1.888,4.906
		c1.888,0.371,4.894,3.387,5.28,1.126c0.367-2.262,1.692-5.277,4.894-1.51c0.759,0.899,1.741,1.752,2.789,2.534
		c0.516-1.709,4.456-2.003,6.5-4.061C64.479,74.057,60.745,70.443,57.254,67.079 M125.439,97.992
		c0.254-3.74-7.975-6.354-8.851-4.366c-0.872,1.995-2.74,1.753-4.117-0.489c-1.368-2.249,1.254-4.369-0.118-4.615
		c-1.377-0.251-3.117-3.368-2.74-4.613c0.374-1.243-2.122-9.224-6.361-10.222c-4.239-0.998-4.861-6.982-5.606-10.222
		c-0.751-3.239-3.5-1.503-5.612-4.241c-2.122-2.742-5.739-1.369-7.609-1.244c-1.867,0.125,0-3.497,2.989-5.484
		c2.995-1.995,6.488-12.597,6.488-14.71c0-2.124-13.09-2.003-15.583-0.751c-2.496,1.244-4.987-1.87-2.872-2.746
		c2.121-0.868,6.61-5.234,6.361-6.979c-0.247-1.744,3.12-3.364,1.248-4.988c-1.868-1.615-2.12,2.125-3.74,3.369
		c-1.617,1.248-5.238,0.876-9.103,0.125c-3.863-0.751-5.358,4.733-5.235,7.104c0.127,2.371-4.488,3.74-3.743,5.735
		c0.749,1.995-0.869,3.489-2.113,2.363c-1.246-1.119-2.617-3.861-5.113-1.866c-2.497,1.999,2.867,4.616,6.103,4.996
		c3.245,0.367-2.486,2.738-3.112,6.22c-0.622,3.497,4.235,2.003,4.489,4.491c0.255,2.495-6.983,2.871-6.983,5.233
		c0,2.379,4.115-1.118,5.984-2.112c1.872-1.001-0.993,5.853,3.497,5.109c4.485-0.75,3.235-6.854,4.856-6.607
		c1.624,0.247-0.744,3.239,0.629,5.857c1.363,2.616-3.246,6.61-2.995,8.48c0.246,1.869,9.225,1.869,12.09-1.123
		c2.871-2.992,4.235,0.251,2.245,2.496c-1.991,2.241-1.122,4.361,1.375,5.238c2.491,0.868,3.369,1.118,2.246,3.105
		c-1.123,2.003-0.131,5.735-0.755,7.605c-0.622,1.87-8.35,1.623-8.6,0.38c-0.249-1.248-3.494-0.38-2.614,1.365
		c0.868,1.752-2.748,3.619-2.498,5.242c0.255,1.627,4.863,1.243,4.985,3.242c0.123,1.991-3.367,4.358-8.097,5.731
		c-4.743,1.369,0.992,5.113,3.236,3.489c2.243-1.619,1.748,1.119,4.988,1.119c3.241,0,5.244,2.621,8.851,1.253
		c3.616-1.374,3.493,0,0.749,2.115c-2.745,2.124-6.856-0.121-9.35,1.248s-12.636,10.88-10.719,13.219
		c1.123,1.365,2.613-1.995,6.226-3.493c3.62-1.495,4.239,0.993,6.242,1.243c1.991,0.255,2.114-4.111,3.735-3.739
		c1.622,0.376,3.117-1.369,6.107-0.869c2.993,0.497,5.115-0.625,6.61-1.869c1.496-1.244,5.48,2.487,6.734,1.619
		c1.24-0.876,6.729-1.874,9.473-1.753c2.735,0.134,9.847-3.113,11.713-4.858c1.872-1.744-1.121-2.112-3.611-1.744
		c-2.496,0.379-1.999-2.492,0.622-4.984C121.078,103.605,125.192,101.731,125.439,97.992 M50.52,35.411
		c3.369-0.121,7.23-5.857,5.613-7.484C54.511,26.312,48.015,35.501,50.52,35.411"/>
	
		<path fill="#142D48" stroke="#41C0F0" stroke-width="0.5" stroke-linecap="round" stroke-linejoin="round" stroke-miterlimit="10" d="
		M198.371,49.999c-1.25-0.618-1.749-4.617-0.254-5.853c1.494-1.248,2.126-5.993,0.876-7.237c-1.24-1.248-5.739,0-6.11,3.364
		c-0.374,3.365-3.987,1.87-4.984,2.617c-1,0.748,1.989,2.242,0.371,3.74c-1.617,1.495-2.243-2.245-4.86-2.484
		c-2.618-0.258-2.868,3.979-4.235,6.104c-1.377,2.12-0.505,6.607,0,9.599c0.495,2.988,4.111,4.858,3.235,7.354
		c-0.401,1.158,0.417,2.461,1.286,3.732c3.317,0.066,6.357,0.309,7.696,0.751c0.536,0.18,1.659,0.133,3.12-0.07
		c-1.097-1.784-3.558-3.235-3.371-4.538c0.251-1.737,2.618-0.63,4.367,0.868c1.737,1.495,5.611,1.749,5.979-0.121
		c0.229-1.153-0.622-6.482-2.989-5.234c-2.372,1.248-2.99,0.747-3.867-0.501c-0.872-1.247,1.745-3.238,2.371-5.233
		c0.618-1.999,4.732-1.256,5.357-2.872C202.988,52.37,199.611,50.625,198.371,49.999 M217.2,57.604
		c-1.002-0.626-1.749,1.744-2.872,1.995c-1.122,0.25-2.365-4.741-2.867-1.995c-0.501,2.742-2.992-1.123-5.484,2.362
		c-2.494,3.498,1.494,6.611,3.24,7.738c1.743,1.119-0.127,2.738-2.369,2.242c-2.242-0.498-0.871,3.234,2.242,3.739
		c3.114,0.497,6.482-5.484,6.111-6.982C214.821,65.208,218.378,58.339,217.2,57.604"/>
	
		<path fill="#142D48" stroke="#41C0F0" stroke-width="0.5" stroke-linecap="round" stroke-linejoin="round" stroke-miterlimit="10" d="
		M341.231,18.765c1.032-2.226,3.735-2.606,1.717-5.535c-0.38,0.317-0.928,0.61-1.839,0.864c-3.618,1.001-11.474-2.488-15.961-1.62
		c-4.491,0.869-13.587,0.869-15.707,3.114c-2.12,2.246-7.479,2.868-5.113,4.863c2.375,1.999,0,2.993,1.745,5.364
		c1.749,2.37,2.621,3.368,4.992,2.863c2.37-0.493,4.236,0.743,1.737,3.364c-0.036,0.055-0.06,0.098-0.103,0.141
		c3.994-0.372,8.431-0.626,9.084-0.141c1.001,0.751,6.979,5.492,8.478,4.992c0.915-0.305,5.007,0.133,8.047,0.524
		c-0.352-0.931-0.325-1.807,0.301-2.335c1.123-0.935,3.557-0.935,2.247-2.805c-1.308-1.87-1.684-2.242-1.867-4.491
		c-0.191-2.238-0.751-3.361-0.563-4.859C338.609,21.574,340.108,21.198,341.231,18.765 M297.096,24.817
		c-4.483,1.248-5.148,7.452-3.36,7.358c2.241-0.133,7.354-4.37,8.728-5.742C303.832,25.063,301.587,23.569,297.096,24.817
		 M300.835,21.198c1.006-1.87-7.198-1.048-5.355,0.626C296.853,23.076,299.846,23.068,300.835,21.198"/>
	
		<path fill="#142D48" stroke="#41C0F0" stroke-width="0.5" stroke-linecap="round" stroke-linejoin="round" stroke-miterlimit="10" d="
		M233.524,250.333c-5.116,1.119-7.229,1.495-10.218,0c-2.996-1.494-7.839,1.361-7.108,3.36c0.497,1.377,2.496,3.118,8.725,4.746
		c6.235,1.615,6.982,5.852,9.6,5.98c2.617,0.122,2.867-2.374,2.245-5.738c-0.626-3.364,3.114-7.229,3.486-7.855
		C240.625,250.208,238.63,249.211,233.524,250.333 M185.278,222.034c-2.737,2.371-4.998-0.414-6.103,1.495
		c-1.377,2.37,4.235,5.981,3.112,10.844c-1.123,4.858,0.622,10.97,3.49,8.105c2.867-2.863,4.242-1.494,5.86-3.618
		c1.617-2.113,0.25-9.968,1.373-13.708C194.13,221.412,188.021,219.664,185.278,222.034 M246.364,218.043
		c-3.239-1.987-1.123-5.234-6.232-4.991c-5.112,0.258-11.219-6.103-13.089-13.462c-1.87-7.346-9.843-7.726-11.842-12.092
		c-1.995-4.366,1.87-4.858,0.129-8.474c-0.974-2.011,1.178-3.79,3.717-4.796c-0.208-3.998,0.133-8.356,0.441-11.185
		c-1.979-0.203-3.681-0.489-4.287-0.849c-0.939-0.563-1.123-3.561-1.687-3.561c-0.56,0-5.794,0-6.732,0.939
		c-0.933,0.935-3.737,2.621-5.233,1.682c-0.324-0.195-0.68-0.398-1.043-0.578l-1.631,1.518c0,0-0.255,1.995-1.254,1.995
		c-0.989,0-2.49-0.743-2.49,0.993c0,1.749-2.744,1.248-3.989,1.002c-1.245-0.25-2.99,0.246-2.99,1.744
		c0,1.495-0.252,4.742-2.244,2.997c-1.995-1.752-3.998-6.238-4.743-5.743c-0.745,0.501-2.49,5.985-4.235,5.985
		c-1.081,0-4.635,0.282-7.192,0.509c-0.671,2.148,0.045,3.428,0.955,3.982c0.938,0.556-0.562,2.801-1.683,3.364
		c-1.119,0.56-2.99,0-1.68,2.054c1.311,2.054,3.74,2.242,2.43,4.3c-1.307,2.058,0,3.928,1.871,4.115
		c1.868,0.188,4.489-0.188,3.924,1.314c-0.328,0.876-0.837,1.874-0.946,2.853c1.47-0.427,2.771-0.498,4.066-1.178
		c2.621-1.361,1.499-3.736,5.856-4.984c4.366-1.244,10.101,2.371,11.846,4.984c1.745,2.621,2.243,2.871,2.617,4.995
		c0.377,2.112,1.995,6.357,7.976,10.219c5.986,3.869,8.361,8.227,11.472,9.847c3.117,1.627,6.236,1.252,8.105,3.493
		c1.87,2.241,4.361,3.489,7.354,4.862c2.989,1.377,3.114,4.608,5.981,4.988c2.863,0.371,0.998,2.867,2.742,4.983
		c1.741,2.116,2.245,6.607,0.376,9.104c-1.87,2.496-0.877,6.729,0.375,6.729c1.244,0,3.861-4.487,4.237-6.979
		c0.367-2.496,2.867-2.363,4.858-4.988c1.995-2.617-2.988-3.243-3.857-6.607c-0.876-3.368,3.74-6.361,8.098-3.618
		c4.358,2.742,6.111,4.615,6.354,0.379C263.318,225.653,249.604,220.039,246.364,218.043"/>
	
		<path fill="#142D48" stroke="#41C0F0" stroke-width="0.5" stroke-linecap="round" stroke-linejoin="round" stroke-miterlimit="10" d="
		M266.793,197.521c-1.729,2.332-3.419,5.289-3.228,6.256c0.086,0.426-0.059,1.385-0.349,2.613c2.223,1.795,4.374,3.603,5.958,4.424
		c0.161,0.087,0.298,0.157,0.45,0.235c0.493-2.77,2.402-5.63,3.787-5.962C271.476,202.712,268.627,199.36,266.793,197.521"/>
	
		<path fill="#142D48" stroke="#41C0F0" stroke-width="0.5" stroke-linecap="round" stroke-linejoin="round" stroke-miterlimit="10" d="
		M296.352,195.479c-1.874-1.689-1.682-4.671,0-5.798c1.683-1.126,0.185-2.621,0.185-4.486c0-1.874-8.035-2.434-9.351-2.806
		c-1.306-0.375,0.939-5.237-1.118-5.237c-2.062,0-2.805-1.491-2.805-2.993c0-1.494-3.181-3.928-2.993-4.863
		c0.027-0.129,0.117-0.254,0.231-0.379c-1.154-0.172-2.043-0.316-2.371-0.388c-1.389-0.273-3.618-1.106-3.618-1.106
		s-5.188,1.674-8.787,2.77c0.243,2.198,0.817,4.585,2.198,5.102c2.681,1.005,1.679,3.681,2.681,6.032
		c1.005,2.347,0.669,13.066-0.669,13.066c-0.567,0-1.866,1.392-3.142,3.129c1.834,1.839,4.683,5.191,6.619,7.566
		c0.086-0.024,0.176-0.074,0.258-0.074c1.671,0,7.805,4.463,7.805,4.463s8.677-1.808,14.525-2.656
		c0.086-0.896,0.27-1.924,0.165-2.555c-0.188-1.122,1.126-3.364,2.804-3.364C300.651,200.901,298.218,197.162,296.352,195.479"/>
	<g>
		<g>
			<path fill="#FFFFFF" d="M260.424,101.111v1.948h-0.625v-4.977h1.586c0.462,0,0.825,0.139,1.09,0.415
				c0.265,0.277,0.396,0.646,0.396,1.106c0,0.479-0.126,0.847-0.378,1.105s-0.606,0.393-1.064,0.401H260.424z M260.424,100.575
				h0.961c0.277,0,0.49-0.084,0.639-0.25c0.148-0.167,0.223-0.405,0.223-0.716c0-0.299-0.077-0.539-0.229-0.72
				c-0.152-0.18-0.362-0.27-0.629-0.27h-0.964V100.575z"/>
			<path fill="#FFFFFF" d="M266.914,101.008c0,0.679-0.145,1.202-0.434,1.568c-0.29,0.367-0.701,0.551-1.234,0.551
				c-0.513,0-0.918-0.179-1.215-0.535c-0.298-0.356-0.452-0.86-0.463-1.512v-0.938c0-0.665,0.146-1.187,0.44-1.563
				s0.704-0.565,1.23-0.565c0.524,0,0.933,0.181,1.226,0.542s0.442,0.876,0.449,1.546V101.008z M266.289,100.137
				c0-0.527-0.087-0.918-0.259-1.175c-0.172-0.256-0.436-0.384-0.791-0.384c-0.344,0-0.604,0.129-0.781,0.389
				s-0.266,0.643-0.269,1.148v0.893c0,0.508,0.089,0.896,0.266,1.162s0.44,0.4,0.791,0.4s0.61-0.123,0.779-0.369
				s0.256-0.624,0.264-1.132V100.137z"/>
			<path fill="#FFFFFF" d="M268.51,102.522h1.952v0.537h-2.581v-4.977h0.629V102.522z"/>
			<path fill="#FFFFFF" d="M273.527,101.756h-1.682l-0.387,1.303h-0.643l1.604-4.977h0.537l1.605,4.977h-0.643L273.527,101.756z
				 M272.01,101.22h1.357l-0.681-2.263L272.01,101.22z"/>
			<path fill="#FFFFFF" d="M278.49,103.059h-0.629l-1.992-3.835v3.835h-0.629v-4.977h0.629l1.999,3.852v-3.852h0.622V103.059z"/>
			<path fill="#FFFFFF" d="M279.574,103.059v-4.977h1.186c0.581,0,1.032,0.182,1.354,0.545s0.482,0.875,0.482,1.533v0.834
				c0,0.658-0.163,1.167-0.489,1.526c-0.326,0.358-0.799,0.538-1.419,0.538H279.574z M280.199,98.62v3.902h0.502
				c0.44,0,0.762-0.126,0.965-0.378c0.202-0.252,0.306-0.625,0.311-1.12v-0.883c0-0.524-0.101-0.909-0.303-1.154
				c-0.201-0.245-0.506-0.367-0.914-0.367H280.199z"/>
		</g>
	</g>
	<g>
		<path fill="#FFFFFF" d="M90.862,90.64v3.537c-0.004,0.473-0.141,0.842-0.41,1.107c-0.269,0.268-0.644,0.4-1.125,0.4
			c-0.492,0-0.868-0.131-1.128-0.392s-0.392-0.633-0.396-1.116V90.64h0.622v3.511c0,0.335,0.071,0.585,0.214,0.75
			c0.142,0.165,0.372,0.247,0.688,0.247c0.319,0,0.55-0.082,0.692-0.247c0.142-0.165,0.213-0.415,0.213-0.75V90.64H90.862z"/>
		<path fill="#FFFFFF" d="M95.077,95.617h-0.629l-1.993-3.835v3.835h-0.629V90.64h0.629l2,3.852V90.64h0.622V95.617z"/>
		<path fill="#FFFFFF" d="M96.813,95.617h-0.625V90.64h0.625V95.617z"/>
		<path fill="#FFFFFF" d="M100.819,91.177H99.51v4.439h-0.625v-4.439h-1.306V90.64h3.24V91.177z"/>
		<path fill="#FFFFFF" d="M103.939,93.316h-1.76v1.764h2.051v0.537h-2.676V90.64h2.642v0.537h-2.017v1.603h1.76V93.316z"/>
		<path fill="#FFFFFF" d="M105.03,95.617V90.64h1.186c0.581,0,1.032,0.182,1.354,0.545s0.482,0.875,0.482,1.533v0.834
			c0,0.658-0.163,1.167-0.489,1.526c-0.326,0.358-0.799,0.538-1.418,0.538H105.03z M105.655,91.177v3.902h0.502
			c0.44,0,0.761-0.126,0.964-0.378s0.307-0.625,0.311-1.12v-0.883c0-0.524-0.101-0.909-0.302-1.154
			c-0.202-0.245-0.507-0.367-0.915-0.367H105.655z"/>
		<path fill="#FFFFFF" d="M85.814,101.724l-0.489,0.591v1.702H84.7v-4.977h0.625v2.402l0.41-0.543l1.34-1.859h0.752l-1.617,2.191
			l1.743,2.785h-0.749L85.814,101.724z"/>
		<path fill="#FFFFFF" d="M89.167,104.017h-0.625v-4.977h0.625V104.017z"/>
		<path fill="#FFFFFF" d="M93.515,104.017h-0.629l-1.993-3.835v3.835h-0.629v-4.977h0.629l2,3.852v-3.852h0.622V104.017z"/>
		<path fill="#FFFFFF" d="M97.712,103.398l-0.109,0.137c-0.314,0.367-0.775,0.551-1.381,0.551c-0.538,0-0.96-0.179-1.266-0.535
			c-0.307-0.356-0.463-0.86-0.47-1.512v-0.979c0-0.697,0.14-1.219,0.418-1.566c0.279-0.348,0.697-0.521,1.253-0.521
			c0.474,0,0.845,0.132,1.112,0.395c0.268,0.264,0.416,0.64,0.443,1.13h-0.625c-0.025-0.31-0.111-0.552-0.258-0.727
			c-0.147-0.174-0.37-0.261-0.668-0.261c-0.358,0-0.62,0.116-0.786,0.35s-0.253,0.607-0.26,1.119v1.016
			c0,0.501,0.096,0.886,0.287,1.153s0.466,0.401,0.824,0.401c0.337,0,0.594-0.081,0.769-0.244l0.092-0.085v-1.144h-0.909v-0.537
			h1.535V103.398z"/>
		<path fill="#FFFFFF" d="M98.734,104.017v-4.977h1.186c0.581,0,1.032,0.182,1.354,0.545s0.482,0.875,0.482,1.533v0.834
			c0,0.658-0.163,1.167-0.489,1.526c-0.326,0.358-0.799,0.538-1.418,0.538H98.734z M99.359,99.578v3.902h0.502
			c0.44,0,0.761-0.126,0.964-0.378s0.307-0.625,0.311-1.12v-0.883c0-0.524-0.101-0.909-0.302-1.154
			c-0.202-0.245-0.507-0.367-0.915-0.367H99.359z"/>
		<path fill="#FFFFFF" d="M105.966,101.966c0,0.679-0.145,1.202-0.434,1.568c-0.29,0.367-0.701,0.551-1.234,0.551
			c-0.513,0-0.918-0.179-1.215-0.535c-0.298-0.356-0.452-0.86-0.463-1.512v-0.938c0-0.665,0.147-1.187,0.441-1.563
			s0.704-0.565,1.23-0.565c0.524,0,0.933,0.181,1.226,0.542c0.292,0.361,0.442,0.876,0.449,1.546V101.966z M105.341,101.095
			c0-0.527-0.086-0.918-0.258-1.175c-0.172-0.256-0.436-0.384-0.791-0.384c-0.344,0-0.604,0.129-0.781,0.389
			c-0.176,0.26-0.266,0.643-0.268,1.148v0.893c0,0.508,0.088,0.896,0.265,1.162c0.176,0.267,0.44,0.4,0.791,0.4
			s0.611-0.123,0.779-0.369s0.256-0.624,0.263-1.132V101.095z"/>
		<path fill="#FFFFFF" d="M107.74,99.041l1.299,4.061l1.299-4.061h0.807v4.977h-0.625v-1.938l0.058-1.941l-1.302,3.879h-0.479
			l-1.295-3.865l0.058,1.928v1.938h-0.625v-4.977H107.74z"/>
	</g>
	<g>
		<path fill="#FFFFFF" d="M226.06,153.031h-1.441l-0.331,1.116h-0.551l1.374-4.266h0.46l1.377,4.266h-0.551L226.06,153.031z
			 M224.759,152.571h1.163l-0.583-1.939L224.759,152.571z"/>
		<path fill="#FFFFFF" d="M230.004,149.881v3.032c-0.004,0.404-0.121,0.721-0.352,0.949s-0.552,0.343-0.964,0.343
			c-0.422,0-0.744-0.111-0.967-0.336c-0.223-0.223-0.336-0.542-0.34-0.956v-3.032h0.533v3.01c0,0.286,0.061,0.501,0.184,0.643
			c0.121,0.142,0.318,0.212,0.59,0.212c0.273,0,0.471-0.07,0.594-0.212c0.121-0.142,0.183-0.356,0.183-0.643v-3.01H230.004z"/>
		<path fill="#FFFFFF" d="M232.693,153.069c0-0.213-0.058-0.376-0.173-0.489s-0.323-0.224-0.624-0.331s-0.531-0.22-0.69-0.338
			s-0.277-0.253-0.357-0.404c-0.078-0.151-0.118-0.325-0.118-0.521c0-0.338,0.112-0.616,0.339-0.835
			c0.225-0.219,0.521-0.328,0.886-0.328c0.25,0,0.473,0.056,0.668,0.167c0.195,0.112,0.346,0.268,0.451,0.466
			c0.105,0.199,0.158,0.418,0.158,0.656h-0.539c0-0.264-0.063-0.468-0.19-0.612s-0.31-0.217-0.548-0.217
			c-0.217,0-0.385,0.061-0.504,0.182c-0.119,0.122-0.179,0.292-0.179,0.511c0,0.181,0.064,0.331,0.193,0.452
			s0.328,0.229,0.598,0.326c0.42,0.139,0.72,0.31,0.9,0.513s0.271,0.469,0.271,0.797c0,0.346-0.112,0.623-0.337,0.83
			c-0.225,0.209-0.53,0.313-0.917,0.313c-0.248,0-0.478-0.055-0.688-0.162c-0.21-0.109-0.375-0.262-0.494-0.457
			c-0.121-0.197-0.181-0.422-0.181-0.676h0.539c0,0.264,0.073,0.469,0.222,0.615c0.146,0.146,0.348,0.22,0.602,0.22
			c0.236,0,0.414-0.061,0.533-0.182S232.693,153.278,232.693,153.069z"/>
		<path fill="#FFFFFF" d="M236.39,150.341h-1.122v3.806h-0.536v-3.806h-1.119v-0.46h2.777V150.341z"/>
		<path fill="#FFFFFF" d="M238.309,152.421h-0.75v1.726h-0.539v-4.266h1.195c0.418,0,0.734,0.109,0.949,0.326
			c0.215,0.219,0.322,0.537,0.322,0.957c0,0.264-0.059,0.494-0.175,0.689c-0.116,0.197-0.28,0.345-0.493,0.444l0.826,1.813v0.035
			h-0.577L238.309,152.421z M237.559,151.961h0.65c0.225,0,0.403-0.072,0.538-0.217c0.133-0.146,0.2-0.339,0.2-0.582
			c0-0.547-0.248-0.821-0.744-0.821h-0.645V151.961z"/>
		<path fill="#FFFFFF" d="M240.764,154.147h-0.536v-4.266h0.536V154.147z"/>
		<path fill="#FFFFFF" d="M243.693,153.031h-1.441l-0.331,1.116h-0.551l1.374-4.266h0.46l1.377,4.266h-0.551L243.693,153.031z
			 M242.393,152.571h1.163l-0.583-1.939L242.393,152.571z"/>
	</g>
	<g>
		<g>
			<path fill="#FFFFFF" d="M120.061,162.799h-1.682v2.198h-0.625v-4.977h2.591v0.536h-1.965v1.706h1.682V162.799z"/>
			<path fill="#FFFFFF" d="M122.621,162.985h-0.875v2.013h-0.629v-4.977h1.395c0.488,0,0.857,0.127,1.107,0.381
				s0.376,0.626,0.376,1.116c0,0.308-0.068,0.576-0.203,0.805c-0.136,0.229-0.328,0.402-0.576,0.518l0.964,2.116v0.041h-0.673
				L122.621,162.985z M121.746,162.448h0.759c0.262,0,0.471-0.084,0.627-0.253c0.156-0.169,0.234-0.396,0.234-0.679
				c0-0.639-0.29-0.959-0.868-0.959h-0.752V162.448z"/>
			<path fill="#FFFFFF" d="M127.153,163.696h-1.682l-0.386,1.302h-0.643l1.603-4.977h0.537l1.606,4.977h-0.643L127.153,163.696z
				 M125.636,163.159h1.357l-0.68-2.263L125.636,163.159z"/>
			<path fill="#FFFFFF" d="M132.116,164.998h-0.629l-1.993-3.835v3.835h-0.629v-4.977h0.629l2,3.853v-3.853h0.622V164.998z"/>
			<path fill="#FFFFFF" d="M136.32,163.415c-0.027,0.533-0.177,0.942-0.449,1.226c-0.272,0.284-0.657,0.426-1.154,0.426
				c-0.499,0-0.896-0.189-1.189-0.569c-0.294-0.379-0.441-0.894-0.441-1.543v-0.902c0-0.647,0.151-1.158,0.453-1.535
				c0.302-0.375,0.713-0.563,1.235-0.563c0.481,0,0.853,0.144,1.116,0.431c0.263,0.287,0.406,0.698,0.429,1.234h-0.632
				c-0.027-0.406-0.113-0.695-0.256-0.869c-0.144-0.173-0.362-0.26-0.656-0.26c-0.339,0-0.601,0.133-0.783,0.398
				s-0.273,0.654-0.273,1.168v0.912c0,0.504,0.085,0.89,0.254,1.158c0.17,0.27,0.418,0.404,0.744,0.404s0.561-0.081,0.704-0.243
				s0.232-0.452,0.267-0.872H136.32z"/>
			<path fill="#FFFFFF" d="M139.554,162.698h-1.76v1.764h2.051v0.536h-2.676v-4.977h2.642v0.536h-2.017v1.604h1.76V162.698z"/>
		</g>
	</g>
	<g>
		<g>
			<path fill="#FFFFFF" d="M302.633,172.858h-0.875v2.014h-0.629v-4.977h1.395c0.487,0,0.856,0.127,1.107,0.381
				c0.25,0.254,0.375,0.626,0.375,1.116c0,0.308-0.067,0.576-0.203,0.805c-0.136,0.229-0.327,0.401-0.576,0.519l0.965,2.115v0.041
				h-0.674L302.633,172.858z M301.758,172.322h0.758c0.263,0,0.472-0.084,0.628-0.253s0.233-0.396,0.233-0.679
				c0-0.639-0.289-0.958-0.867-0.958h-0.752V172.322z"/>
			<path fill="#FFFFFF" d="M308.08,172.821c0,0.679-0.145,1.202-0.434,1.568c-0.29,0.367-0.701,0.551-1.234,0.551
				c-0.513,0-0.918-0.179-1.215-0.535c-0.298-0.356-0.452-0.86-0.463-1.512v-0.938c0-0.665,0.146-1.187,0.44-1.563
				s0.704-0.565,1.23-0.565c0.524,0,0.933,0.181,1.226,0.542s0.442,0.876,0.449,1.546V172.821z M307.455,171.95
				c0-0.527-0.087-0.918-0.259-1.175c-0.172-0.256-0.436-0.384-0.791-0.384c-0.344,0-0.604,0.129-0.781,0.389
				s-0.266,0.643-0.269,1.148v0.893c0,0.508,0.089,0.896,0.266,1.162s0.44,0.4,0.791,0.4s0.61-0.123,0.779-0.369
				s0.256-0.624,0.264-1.132V171.95z"/>
			<path fill="#FFFFFF" d="M309.854,169.895l1.299,4.061l1.299-4.061h0.807v4.977h-0.625v-1.938l0.059-1.941l-1.303,3.879h-0.479
				l-1.295-3.865l0.058,1.928v1.938h-0.626v-4.977H309.854z"/>
			<path fill="#FFFFFF" d="M316.656,173.569h-1.682l-0.387,1.303h-0.643l1.604-4.977h0.537l1.605,4.977h-0.643L316.656,173.569z
				 M315.139,173.033h1.357l-0.681-2.263L315.139,173.033z"/>
			<path fill="#FFFFFF" d="M321.619,174.872h-0.629l-1.992-3.835v3.835h-0.629v-4.977h0.629l1.999,3.852v-3.852h0.622V174.872z"/>
			<path fill="#FFFFFF" d="M323.355,174.872h-0.625v-4.977h0.625V174.872z"/>
			<path fill="#FFFFFF" d="M326.773,173.569h-1.682l-0.387,1.303h-0.643l1.604-4.977h0.537l1.605,4.977h-0.643L326.773,173.569z
				 M325.256,173.033h1.357l-0.681-2.263L325.256,173.033z"/>
		</g>
	</g>
	<g>
		<g>
			<path fill="#FFFFFF" d="M304.604,205.808v-4.977h1.418c0.453,0,0.795,0.11,1.023,0.331c0.229,0.222,0.344,0.553,0.344,0.995
				c0,0.232-0.059,0.438-0.174,0.615c-0.117,0.178-0.273,0.315-0.473,0.413c0.229,0.068,0.409,0.209,0.542,0.421
				c0.134,0.212,0.2,0.467,0.2,0.766c0,0.446-0.122,0.798-0.367,1.053s-0.595,0.383-1.048,0.383H304.604z M305.229,202.954h0.803
				c0.217,0,0.392-0.072,0.525-0.219c0.133-0.146,0.199-0.34,0.199-0.582c0-0.274-0.06-0.474-0.181-0.598
				c-0.121-0.125-0.306-0.188-0.554-0.188h-0.793V202.954z M305.229,203.481v1.791h0.854c0.237,0,0.425-0.078,0.563-0.234
				c0.14-0.156,0.209-0.376,0.209-0.658c0-0.6-0.253-0.898-0.759-0.898H305.229z"/>
			<path fill="#FFFFFF" d="M311.39,200.832v3.538c-0.005,0.471-0.142,0.84-0.41,1.107c-0.27,0.266-0.645,0.399-1.125,0.399
				c-0.492,0-0.868-0.131-1.128-0.392s-0.392-0.633-0.396-1.115v-3.538h0.622v3.511c0,0.335,0.071,0.585,0.214,0.75
				s0.372,0.248,0.688,0.248c0.319,0,0.55-0.083,0.692-0.248s0.214-0.415,0.214-0.75v-3.511H311.39z"/>
			<path fill="#FFFFFF" d="M312.981,205.272h1.952v0.536h-2.581v-4.977h0.629V205.272z"/>
			<path fill="#FFFFFF" d="M318.792,205.19l-0.109,0.137c-0.314,0.366-0.774,0.55-1.381,0.55c-0.538,0-0.96-0.179-1.267-0.535
				s-0.463-0.86-0.47-1.513v-0.977c0-0.697,0.14-1.22,0.419-1.567s0.696-0.521,1.253-0.521c0.474,0,0.845,0.132,1.112,0.395
				c0.268,0.264,0.415,0.64,0.442,1.13h-0.625c-0.025-0.31-0.111-0.552-0.259-0.727c-0.146-0.174-0.369-0.262-0.668-0.262
				c-0.357,0-0.62,0.117-0.786,0.351s-0.253,0.606-0.26,1.12v1.015c0,0.501,0.096,0.886,0.287,1.153s0.466,0.402,0.824,0.402
				c0.337,0,0.593-0.082,0.769-0.245l0.093-0.085v-1.144h-0.91v-0.536h1.535V205.19z"/>
			<path fill="#FFFFFF" d="M322.135,204.506h-1.682l-0.386,1.302h-0.643l1.603-4.977h0.536l1.607,4.977h-0.643L322.135,204.506z
				 M320.617,203.969h1.356l-0.68-2.263L320.617,203.969z"/>
			<path fill="#FFFFFF" d="M325.351,203.795h-0.875v2.013h-0.629v-4.977h1.395c0.488,0,0.857,0.127,1.107,0.381
				c0.251,0.254,0.377,0.626,0.377,1.116c0,0.308-0.068,0.576-0.204,0.805c-0.136,0.229-0.327,0.402-0.575,0.518l0.963,2.116v0.041
				h-0.673L325.351,203.795z M324.476,203.258h0.76c0.262,0,0.471-0.084,0.627-0.253s0.234-0.396,0.234-0.679
				c0-0.639-0.29-0.959-0.869-0.959h-0.752V203.258z"/>
			<path fill="#FFFFFF" d="M328.216,205.808h-0.625v-4.977h0.625V205.808z"/>
			<path fill="#FFFFFF" d="M331.634,204.506h-1.682l-0.387,1.302h-0.643l1.604-4.977h0.537l1.605,4.977h-0.643L331.634,204.506z
				 M330.116,203.969h1.357l-0.681-2.263L330.116,203.969z"/>
		</g>
	</g>
	<g>
		<g>
			<path fill="#FFFFFF" d="M70.892,231.912c0-0.248-0.067-0.438-0.202-0.571c-0.134-0.132-0.377-0.261-0.728-0.386
				s-0.619-0.257-0.805-0.395c-0.186-0.138-0.324-0.295-0.417-0.472c-0.092-0.177-0.138-0.379-0.138-0.607
				c0-0.394,0.131-0.719,0.395-0.974c0.263-0.255,0.607-0.383,1.034-0.383c0.292,0,0.551,0.065,0.779,0.195s0.403,0.312,0.526,0.543
				c0.123,0.232,0.185,0.487,0.185,0.766h-0.629c0-0.308-0.074-0.546-0.222-0.714c-0.148-0.169-0.361-0.254-0.639-0.254
				c-0.253,0-0.449,0.071-0.588,0.213s-0.208,0.34-0.208,0.596c0,0.21,0.075,0.386,0.226,0.527s0.383,0.269,0.697,0.38
				c0.49,0.162,0.84,0.361,1.051,0.599c0.211,0.237,0.316,0.547,0.316,0.93c0,0.403-0.131,0.727-0.393,0.969
				c-0.262,0.243-0.619,0.364-1.07,0.364c-0.29,0-0.557-0.063-0.802-0.189c-0.245-0.127-0.438-0.305-0.577-0.533
				c-0.141-0.229-0.21-0.492-0.21-0.788h0.629c0,0.308,0.086,0.547,0.258,0.718c0.172,0.171,0.406,0.257,0.702,0.257
				c0.276,0,0.483-0.071,0.622-0.213C70.823,232.348,70.892,232.156,70.892,231.912z"/>
			<path fill="#FFFFFF" d="M72.97,231.221v1.948h-0.625v-4.977h1.586c0.462,0,0.826,0.139,1.09,0.415
				c0.264,0.277,0.396,0.646,0.396,1.105c0,0.479-0.126,0.848-0.377,1.106c-0.252,0.259-0.607,0.393-1.065,0.401H72.97z
				 M72.97,230.684h0.96c0.278,0,0.491-0.083,0.639-0.249c0.148-0.167,0.222-0.405,0.222-0.716c0-0.299-0.076-0.539-0.229-0.72
				c-0.153-0.18-0.362-0.271-0.629-0.271H72.97V230.684z"/>
			<path fill="#FFFFFF" d="M78.545,231.868h-1.682l-0.386,1.302h-0.643l1.603-4.977h0.537l1.606,4.977h-0.643L78.545,231.868z
				 M77.027,231.331h1.357l-0.68-2.263L77.027,231.331z"/>
			<path fill="#FFFFFF" d="M80.91,233.169h-0.625v-4.977h0.625V233.169z"/>
			<path fill="#FFFFFF" d="M85.258,233.169h-0.629l-1.993-3.835v3.835h-0.629v-4.977h0.629l2,3.853v-3.853h0.622V233.169z"/>
		</g>
	</g>
	<g>
		<path fill="#FFFFFF" d="M41.258,242.795l1.664,0.148l-0.048,0.535l-4.249-0.379l0.121-1.354c0.035-0.396,0.182-0.694,0.438-0.899
			s0.58-0.289,0.974-0.254c0.408,0.036,0.714,0.172,0.915,0.406c0.202,0.234,0.289,0.548,0.261,0.939L41.258,242.795z M40.8,242.754
			l0.073-0.819c0.021-0.237-0.033-0.426-0.164-0.565c-0.132-0.139-0.329-0.22-0.594-0.243c-0.256-0.022-0.466,0.024-0.633,0.141
			c-0.165,0.116-0.258,0.289-0.278,0.517l-0.073,0.822L40.8,242.754z"/>
		<path fill="#FFFFFF" d="M41.665,237.247c0.579,0.052,1.016,0.215,1.306,0.49c0.292,0.275,0.417,0.64,0.376,1.096
			c-0.039,0.438-0.221,0.77-0.549,0.996c-0.326,0.227-0.77,0.32-1.326,0.28l-0.8-0.071c-0.568-0.051-1.001-0.216-1.301-0.496
			c-0.299-0.279-0.43-0.644-0.39-1.093c0.039-0.448,0.226-0.782,0.556-1.005c0.331-0.223,0.782-0.312,1.354-0.266L41.665,237.247z
			 M40.873,237.714c-0.449-0.04-0.789,0.003-1.021,0.131c-0.231,0.128-0.362,0.343-0.389,0.646
			c-0.026,0.294,0.065,0.525,0.273,0.696c0.208,0.17,0.528,0.275,0.96,0.316l0.762,0.068c0.434,0.038,0.771-0.008,1.012-0.139
			c0.241-0.13,0.375-0.345,0.401-0.645c0.026-0.299-0.058-0.53-0.255-0.693c-0.197-0.162-0.513-0.266-0.946-0.311L40.873,237.714z"
			/>
		<path fill="#FFFFFF" d="M41.886,235.139l-0.066,0.748l1.719,0.152l-0.048,0.537l-4.249-0.379l0.105-1.189
			c0.037-0.417,0.175-0.723,0.411-0.918c0.235-0.193,0.562-0.272,0.98-0.235c0.263,0.023,0.487,0.102,0.672,0.235
			c0.186,0.133,0.318,0.31,0.397,0.531l1.88-0.662l0.035,0.003l-0.051,0.575L41.886,235.139z M41.361,235.846l0.058-0.648
			c0.02-0.224-0.036-0.408-0.169-0.555s-0.319-0.229-0.561-0.251c-0.546-0.049-0.842,0.174-0.886,0.668l-0.057,0.642L41.361,235.846
			z"/>
		<path fill="#FFFFFF" d="M40.199,230.631l-0.1,1.117l3.791,0.338l-0.048,0.535l-3.791-0.339l-0.1,1.115l-0.458-0.041l0.247-2.767
			L40.199,230.631z"/>
		<path fill="#FFFFFF" d="M40.022,227.43l3.021,0.27c0.402,0.039,0.707,0.185,0.914,0.434c0.208,0.25,0.292,0.581,0.256,0.991
			c-0.038,0.42-0.177,0.731-0.419,0.934s-0.571,0.286-0.983,0.253l-3.021-0.27l0.047-0.531l2.998,0.268
			c0.285,0.025,0.505-0.016,0.656-0.125c0.152-0.109,0.239-0.299,0.264-0.568c0.024-0.273-0.027-0.477-0.158-0.611
			c-0.13-0.134-0.339-0.213-0.624-0.238l-2.998-0.268L40.022,227.43z"/>
		<path fill="#FFFFFF" d="M44.054,224.28l0.108,0.105c0.289,0.296,0.41,0.702,0.364,1.22c-0.041,0.459-0.225,0.806-0.553,1.04
			c-0.326,0.235-0.771,0.33-1.326,0.287l-0.835-0.074c-0.596-0.054-1.03-0.213-1.307-0.478c-0.274-0.265-0.392-0.634-0.35-1.108
			c0.036-0.405,0.178-0.711,0.423-0.92s0.577-0.307,0.997-0.293l-0.047,0.535c-0.267-0.003-0.479,0.053-0.64,0.164
			c-0.16,0.112-0.252,0.297-0.275,0.551c-0.027,0.306,0.054,0.538,0.24,0.698c0.187,0.159,0.498,0.262,0.936,0.307l0.867,0.077
			c0.428,0.038,0.764-0.014,1.007-0.157c0.243-0.143,0.378-0.366,0.404-0.673c0.026-0.287-0.023-0.513-0.15-0.675l-0.064-0.085
			l-0.977-0.088l-0.069,0.777l-0.458-0.041l0.116-1.311L44.054,224.28z"/>
		<path fill="#FFFFFF" d="M43.718,221.447l-0.128,1.436l1.083,0.429l-0.049,0.549l-4.127-1.748l0.041-0.457l4.371-0.993
			l-0.049,0.549L43.718,221.447z M43.145,222.702l0.104-1.158l-1.983,0.408L43.145,222.702z"/>
		<path fill="#FFFFFF" d="M44.551,219.506l0.148-1.666l0.458,0.041l-0.196,2.203l-4.249-0.379l0.048-0.537L44.551,219.506z"/>
	</g>
	<g>
		<g>
			<path fill="#FFFFFF" d="M191.803,110.055l-0.109,0.137c-0.314,0.367-0.775,0.551-1.381,0.551c-0.538,0-0.96-0.179-1.266-0.535
				c-0.307-0.356-0.463-0.86-0.47-1.512v-0.979c0-0.697,0.14-1.219,0.418-1.566c0.279-0.348,0.697-0.521,1.253-0.521
				c0.474,0,0.845,0.132,1.112,0.395c0.268,0.264,0.416,0.64,0.443,1.13h-0.625c-0.025-0.31-0.111-0.552-0.258-0.727
				c-0.147-0.174-0.37-0.261-0.668-0.261c-0.358,0-0.62,0.116-0.786,0.35s-0.253,0.607-0.26,1.119v1.016
				c0,0.501,0.096,0.886,0.287,1.153s0.466,0.401,0.824,0.401c0.337,0,0.594-0.081,0.769-0.244l0.092-0.085v-1.144h-0.909v-0.537
				h1.535V110.055z"/>
			<path fill="#FFFFFF" d="M195.211,108.374h-1.76v1.764h2.051v0.537h-2.676v-4.977h2.642v0.537h-2.017v1.603h1.76V108.374z"/>
			<path fill="#FFFFFF" d="M197.805,108.661h-0.875v2.014h-0.629v-4.977h1.395c0.488,0,0.857,0.127,1.107,0.381
				s0.376,0.626,0.376,1.116c0,0.308-0.068,0.576-0.204,0.805c-0.135,0.229-0.327,0.401-0.576,0.519l0.964,2.115v0.041h-0.673
				L197.805,108.661z M196.93,108.125h0.759c0.262,0,0.471-0.084,0.627-0.253c0.156-0.169,0.234-0.396,0.234-0.679
				c0-0.639-0.29-0.958-0.868-0.958h-0.752V108.125z"/>
			<path fill="#FFFFFF" d="M200.823,105.698l1.299,4.061l1.299-4.061h0.807v4.977h-0.626v-1.938l0.059-1.941l-1.303,3.879h-0.479
				l-1.295-3.865l0.059,1.928v1.938h-0.626v-4.977H200.823z"/>
			<path fill="#FFFFFF" d="M207.625,109.372h-1.682l-0.387,1.303h-0.643l1.604-4.977h0.537l1.605,4.977h-0.643L207.625,109.372z
				 M206.107,108.835h1.357l-0.681-2.263L206.107,108.835z"/>
			<path fill="#FFFFFF" d="M212.588,110.674h-0.629l-1.992-3.835v3.835h-0.629v-4.977h0.629l1.999,3.852v-3.852h0.622V110.674z"/>
			<path fill="#FFFFFF" d="M214.967,108.196l1.019-2.498h0.708l-1.416,3.121v1.855h-0.625v-1.855l-1.415-3.121h0.711
				L214.967,108.196z"/>
		</g>
	</g>
	<g>
		<g>
			<path fill="#FFFFFF" d="M193.768,181.41h-0.625v-4.977h0.625V181.41z"/>
			<path fill="#FFFFFF" d="M197.774,176.969h-1.309v4.44h-0.625v-4.44h-1.306v-0.536h3.24V176.969z"/>
			<path fill="#FFFFFF" d="M200.83,180.108h-1.682l-0.386,1.302h-0.643l1.604-4.977h0.536l1.606,4.977h-0.643L200.83,180.108z
				 M199.312,179.571h1.357l-0.681-2.263L199.312,179.571z"/>
			<path fill="#FFFFFF" d="M203.171,180.874h1.952v0.536h-2.581v-4.977h0.629V180.874z"/>
			<path fill="#FFFFFF" d="M207.163,178.932l1.019-2.499h0.707l-1.414,3.12v1.856h-0.626v-1.856l-1.415-3.12h0.711L207.163,178.932z
				"/>
		</g>
	</g>
	<g>
		<path fill="#FFFFFF" d="M275.48,198.293c0-0.248-0.066-0.439-0.201-0.57c-0.135-0.133-0.377-0.262-0.729-0.387
			c-0.35-0.125-0.619-0.258-0.805-0.395c-0.186-0.139-0.324-0.295-0.416-0.473c-0.092-0.176-0.139-0.379-0.139-0.605
			c0-0.395,0.131-0.721,0.395-0.975c0.264-0.256,0.607-0.383,1.033-0.383c0.293,0,0.553,0.064,0.779,0.195
			c0.229,0.129,0.404,0.311,0.527,0.543s0.184,0.486,0.184,0.766h-0.629c0-0.309-0.072-0.547-0.221-0.715s-0.361-0.252-0.641-0.252
			c-0.252,0-0.447,0.07-0.588,0.211c-0.139,0.143-0.207,0.34-0.207,0.596c0,0.211,0.074,0.387,0.225,0.527
			c0.15,0.143,0.383,0.27,0.697,0.381c0.49,0.162,0.84,0.361,1.051,0.598c0.211,0.238,0.316,0.547,0.316,0.93
			c0,0.404-0.131,0.727-0.393,0.969c-0.262,0.244-0.619,0.365-1.07,0.365c-0.289,0-0.557-0.064-0.801-0.189
			c-0.246-0.127-0.438-0.305-0.578-0.533c-0.141-0.23-0.211-0.492-0.211-0.789h0.629c0,0.309,0.088,0.547,0.26,0.719
			c0.172,0.17,0.406,0.256,0.701,0.256c0.275,0,0.484-0.07,0.623-0.211C275.412,198.729,275.48,198.538,275.48,198.293z"/>
		<path fill="#FFFFFF" d="M279.318,197.25h-1.76v1.764h2.051v0.537h-2.676v-4.977h2.643v0.537h-2.018v1.602h1.76V197.25z"/>
		<path fill="#FFFFFF" d="M281.914,197.538h-0.875v2.014h-0.629v-4.977h1.395c0.488,0,0.857,0.127,1.107,0.381
			s0.375,0.625,0.375,1.115c0,0.309-0.066,0.576-0.203,0.805c-0.135,0.23-0.326,0.402-0.576,0.52l0.965,2.115v0.041h-0.674
			L281.914,197.538z M281.039,197h0.758c0.264,0,0.473-0.084,0.629-0.252c0.156-0.17,0.232-0.396,0.232-0.68
			c0-0.639-0.289-0.957-0.867-0.957h-0.752V197z"/>
		<path fill="#FFFFFF" d="M284.125,199.551v-4.977h1.418c0.453,0,0.795,0.109,1.023,0.332c0.23,0.221,0.344,0.551,0.344,0.994
			c0,0.232-0.059,0.438-0.174,0.615c-0.117,0.178-0.273,0.314-0.473,0.414c0.229,0.068,0.41,0.207,0.543,0.42
			c0.133,0.211,0.199,0.467,0.199,0.766c0,0.445-0.121,0.797-0.367,1.053c-0.244,0.254-0.594,0.383-1.047,0.383H284.125z
			 M284.75,196.698h0.803c0.217,0,0.393-0.074,0.525-0.221s0.199-0.34,0.199-0.582c0-0.273-0.059-0.473-0.18-0.598
			s-0.307-0.186-0.555-0.186h-0.793V196.698z M284.75,197.223v1.791h0.855c0.236,0,0.424-0.078,0.563-0.234
			c0.141-0.156,0.209-0.375,0.209-0.658c0-0.6-0.252-0.898-0.758-0.898H284.75z"/>
		<path fill="#FFFFFF" d="M288.596,199.551h-0.625v-4.977h0.625V199.551z"/>
		<path fill="#FFFFFF" d="M292.014,198.249h-1.682l-0.387,1.303h-0.643l1.604-4.977h0.537l1.605,4.977h-0.643L292.014,198.249z
			 M290.496,197.711h1.357l-0.68-2.262L290.496,197.711z"/>
	</g>
	<g>
		<path fill="#FFFFFF" d="M256.737,160.663h-0.629v-2.301h-2.003v2.301h-0.626v-4.977h0.626v2.14h2.003v-2.14h0.629V160.663z"/>
		<path fill="#FFFFFF" d="M260.788,155.686v3.537c-0.005,0.473-0.142,0.842-0.41,1.107c-0.27,0.268-0.645,0.4-1.125,0.4
			c-0.492,0-0.868-0.131-1.128-0.392s-0.392-0.633-0.396-1.116v-3.537h0.622v3.511c0,0.335,0.071,0.585,0.214,0.75
			s0.372,0.247,0.688,0.247c0.319,0,0.55-0.082,0.692-0.247s0.214-0.415,0.214-0.75v-3.511H260.788z"/>
		<path fill="#FFFFFF" d="M265.002,160.663h-0.629l-1.993-3.835v3.835h-0.629v-4.977h0.629l2,3.852v-3.852h0.622V160.663z"/>
		<path fill="#FFFFFF" d="M269.199,160.043l-0.109,0.137c-0.314,0.367-0.774,0.551-1.381,0.551c-0.538,0-0.96-0.179-1.267-0.535
			s-0.463-0.86-0.47-1.512v-0.979c0-0.697,0.14-1.219,0.419-1.566s0.696-0.521,1.252-0.521c0.475,0,0.846,0.132,1.113,0.395
			c0.268,0.264,0.415,0.64,0.442,1.13h-0.626c-0.024-0.31-0.11-0.552-0.258-0.727c-0.146-0.174-0.369-0.261-0.668-0.261
			c-0.357,0-0.62,0.116-0.786,0.35s-0.253,0.607-0.26,1.119v1.016c0,0.501,0.096,0.886,0.287,1.153s0.466,0.401,0.823,0.401
			c0.338,0,0.594-0.081,0.77-0.244l0.092-0.085v-1.144h-0.908v-0.537h1.534V160.043z"/>
		<path fill="#FFFFFF" d="M272.458,159.36h-1.682l-0.387,1.303h-0.643l1.604-4.977h0.537l1.605,4.977h-0.643L272.458,159.36z
			 M270.94,158.824h1.357l-0.681-2.263L270.94,158.824z"/>
		<path fill="#FFFFFF" d="M275.675,158.649H274.8v2.014h-0.629v-4.977h1.395c0.487,0,0.856,0.127,1.107,0.381
			c0.25,0.254,0.375,0.626,0.375,1.116c0,0.308-0.067,0.576-0.203,0.805c-0.136,0.229-0.327,0.401-0.576,0.519l0.965,2.115v0.041
			h-0.674L275.675,158.649z M274.8,158.113h0.758c0.263,0,0.472-0.084,0.628-0.253s0.233-0.396,0.233-0.679
			c0-0.639-0.289-0.958-0.867-0.958H274.8V158.113z"/>
		<path fill="#FFFFFF" d="M279.02,158.184l1.019-2.498h0.707l-1.414,3.121v1.855h-0.626v-1.855l-1.415-3.121h0.711L279.02,158.184z"
			/>
	</g>
	<g>
		<path fill="#FFFFFF" d="M266.873,138.764c0-0.213-0.059-0.375-0.174-0.488s-0.322-0.225-0.623-0.332s-0.531-0.219-0.691-0.338
			c-0.158-0.117-0.277-0.252-0.357-0.404c-0.078-0.15-0.117-0.324-0.117-0.52c0-0.338,0.111-0.617,0.338-0.836
			c0.225-0.219,0.521-0.328,0.887-0.328c0.25,0,0.473,0.057,0.668,0.168s0.346,0.268,0.451,0.465
			c0.105,0.199,0.158,0.418,0.158,0.656h-0.539c0-0.264-0.064-0.467-0.191-0.611s-0.309-0.217-0.547-0.217
			c-0.217,0-0.385,0.061-0.504,0.182s-0.18,0.291-0.18,0.51c0,0.182,0.064,0.332,0.193,0.453s0.328,0.229,0.598,0.326
			c0.42,0.139,0.721,0.309,0.9,0.512c0.182,0.203,0.271,0.469,0.271,0.797c0,0.346-0.111,0.623-0.336,0.83
			c-0.225,0.209-0.531,0.313-0.918,0.313c-0.248,0-0.477-0.055-0.688-0.162c-0.209-0.109-0.375-0.262-0.494-0.457
			c-0.121-0.197-0.18-0.422-0.18-0.676h0.539c0,0.264,0.072,0.469,0.221,0.615c0.146,0.146,0.348,0.221,0.602,0.221
			c0.236,0,0.414-0.061,0.533-0.182S266.873,138.973,266.873,138.764z"/>
		<path fill="#FFFFFF" d="M268.656,139.383h1.674v0.459h-2.213v-4.266h0.539V139.383z"/>
		<path fill="#FFFFFF" d="M273.684,138.084c0,0.582-0.125,1.031-0.373,1.346s-0.6,0.471-1.057,0.471
			c-0.439,0-0.787-0.152-1.043-0.459c-0.254-0.305-0.387-0.736-0.396-1.295v-0.803c0-0.57,0.127-1.018,0.379-1.342
			c0.252-0.322,0.604-0.484,1.055-0.484c0.449,0,0.799,0.156,1.049,0.465c0.252,0.311,0.381,0.752,0.387,1.326V138.084z
			 M273.146,137.338c0-0.451-0.074-0.787-0.221-1.008c-0.148-0.219-0.373-0.328-0.678-0.328c-0.295,0-0.52,0.111-0.67,0.334
			c-0.152,0.223-0.229,0.551-0.23,0.984v0.764c0,0.436,0.076,0.768,0.227,0.996c0.152,0.229,0.379,0.344,0.68,0.344
			s0.523-0.105,0.668-0.316s0.219-0.535,0.225-0.971V137.338z"/>
		<path fill="#FFFFFF" d="M275.617,139.02l0.975-3.443h0.59l-1.328,4.266h-0.469l-1.324-4.266h0.586L275.617,139.02z"/>
		<path fill="#FFFFFF" d="M279.471,138.727h-1.441l-0.33,1.115h-0.551l1.373-4.266h0.461l1.377,4.266h-0.551L279.471,138.727z
			 M278.17,138.266h1.164l-0.584-1.939L278.17,138.266z"/>
		<path fill="#FFFFFF" d="M281.895,137.877l-0.42,0.506v1.459h-0.535v-4.266h0.535v2.061l0.352-0.467l1.148-1.594h0.645
			l-1.385,1.879l1.494,2.387h-0.643L281.895,137.877z"/>
		<path fill="#FFFFFF" d="M284.768,139.842h-0.535v-4.266h0.535V139.842z"/>
		<path fill="#FFFFFF" d="M287.697,138.727h-1.441l-0.33,1.115h-0.551l1.373-4.266h0.461l1.377,4.266h-0.551L287.697,138.727z
			 M286.396,138.266h1.164l-0.584-1.939L286.396,138.266z"/>
	</g>
	<g>
		<path fill="#FFFFFF" d="M296.059,62.696h1.674v0.461h-2.213v-4.266h0.539V62.696z"/>
		<path fill="#FFFFFF" d="M298.93,63.157h-0.535v-4.266h0.535V63.157z"/>
		<path fill="#FFFFFF" d="M302.363,59.351h-1.121v3.806h-0.537v-3.806h-1.119v-0.46h2.777V59.351z"/>
		<path fill="#FFFFFF" d="M305.785,63.157h-0.539v-1.972h-1.717v1.972h-0.535v-4.266h0.535v1.834h1.717v-1.834h0.539V63.157z"/>
		<path fill="#FFFFFF" d="M309.258,58.891v3.032c-0.004,0.404-0.121,0.72-0.352,0.949s-0.553,0.344-0.965,0.344
			c-0.422,0-0.744-0.111-0.967-0.336c-0.223-0.223-0.336-0.543-0.34-0.957v-3.032h0.533v3.01c0,0.286,0.061,0.5,0.184,0.643
			c0.121,0.141,0.318,0.211,0.59,0.211c0.273,0,0.471-0.07,0.594-0.211c0.121-0.143,0.184-0.357,0.184-0.643v-3.01H309.258z"/>
		<path fill="#FFFFFF" d="M312.006,62.04h-1.441l-0.33,1.117h-0.551l1.373-4.266h0.461l1.377,4.266h-0.551L312.006,62.04z
			 M310.705,61.58h1.164l-0.584-1.939L310.705,61.58z"/>
		<path fill="#FFFFFF" d="M316.26,63.157h-0.539l-1.707-3.288v3.288h-0.539v-4.266h0.539l1.713,3.301v-3.301h0.533V63.157z"/>
		<path fill="#FFFFFF" d="M317.748,63.157h-0.535v-4.266h0.535V63.157z"/>
		<path fill="#FFFFFF" d="M320.678,62.04h-1.441l-0.33,1.117h-0.551l1.373-4.266h0.461l1.377,4.266h-0.551L320.678,62.04z
			 M319.377,61.58h1.164l-0.584-1.939L319.377,61.58z"/>
	</g>
	<g>
		<path fill="#FFFFFF" d="M315.487,47.618h1.673v0.46h-2.212v-4.266h0.539V47.618z"/>
		<path fill="#FFFFFF" d="M319.788,46.961h-1.441l-0.331,1.116h-0.551l1.374-4.266h0.46l1.377,4.266h-0.551L319.788,46.961z
			 M318.487,46.501h1.163l-0.583-1.939L318.487,46.501z"/>
		<path fill="#FFFFFF" d="M323.305,44.272h-1.122v3.806h-0.536v-3.806h-1.119v-0.46h2.777V44.272z"/>
		<path fill="#FFFFFF" d="M325.153,47.254l0.976-3.442h0.589l-1.327,4.266h-0.469l-1.324-4.266h0.586L325.153,47.254z"/>
		<path fill="#FFFFFF" d="M327.854,48.078h-0.536v-4.266h0.536V48.078z"/>
		<path fill="#FFFFFF" d="M330.784,46.961h-1.441l-0.331,1.116h-0.551l1.374-4.266h0.46l1.377,4.266h-0.551L330.784,46.961z
			 M329.483,46.501h1.163l-0.583-1.939L329.483,46.501z"/>
	</g>
	<g>
		<path fill="#FFFFFF" d="M315.428,22.875h-1.51v1.512h1.758v0.46h-2.293v-4.266h2.264v0.46h-1.729v1.374h1.51V22.875z"/>
		<path fill="#FFFFFF" d="M318.225,23.769c0-0.213-0.057-0.376-0.172-0.489s-0.324-0.224-0.625-0.331s-0.531-0.22-0.689-0.338
			c-0.16-0.118-0.277-0.253-0.357-0.404c-0.078-0.151-0.119-0.325-0.119-0.52c0-0.338,0.113-0.616,0.34-0.835
			c0.225-0.219,0.52-0.328,0.885-0.328c0.25,0,0.473,0.056,0.668,0.167c0.195,0.111,0.346,0.267,0.451,0.466
			c0.105,0.199,0.158,0.417,0.158,0.656h-0.539c0-0.264-0.063-0.468-0.189-0.612s-0.311-0.217-0.549-0.217
			c-0.217,0-0.385,0.061-0.504,0.182c-0.119,0.121-0.178,0.292-0.178,0.51c0,0.18,0.064,0.331,0.193,0.452
			c0.129,0.122,0.328,0.23,0.598,0.326c0.42,0.139,0.719,0.31,0.9,0.513c0.18,0.203,0.271,0.469,0.271,0.797
			c0,0.346-0.113,0.623-0.338,0.831s-0.529,0.312-0.916,0.312c-0.248,0-0.479-0.054-0.688-0.163
			c-0.211-0.108-0.375-0.261-0.494-0.457c-0.121-0.196-0.182-0.421-0.182-0.675h0.539c0,0.264,0.074,0.469,0.223,0.615
			c0.146,0.146,0.348,0.22,0.602,0.22c0.236,0,0.414-0.061,0.533-0.182S318.225,23.978,318.225,23.769z"/>
		<path fill="#FFFFFF" d="M321.922,21.041h-1.123v3.806h-0.535v-3.806h-1.119v-0.46h2.777V21.041z"/>
		<path fill="#FFFFFF" d="M325.23,23.089c0,0.582-0.125,1.03-0.373,1.345s-0.6,0.472-1.057,0.472c-0.439,0-0.787-0.153-1.041-0.458
			c-0.256-0.306-0.389-0.738-0.398-1.296v-0.803c0-0.57,0.127-1.017,0.379-1.34s0.604-0.485,1.055-0.485
			c0.449,0,0.799,0.155,1.051,0.464c0.25,0.31,0.379,0.751,0.385,1.326V23.089z M324.693,22.342c0-0.451-0.074-0.787-0.221-1.006
			c-0.148-0.22-0.373-0.33-0.678-0.33c-0.295,0-0.52,0.111-0.67,0.334c-0.152,0.223-0.229,0.551-0.23,0.984v0.765
			c0,0.436,0.076,0.768,0.229,0.996c0.15,0.229,0.377,0.343,0.678,0.343s0.523-0.105,0.668-0.316s0.219-0.534,0.225-0.97V22.342z"/>
		<path fill="#FFFFFF" d="M328.846,24.847h-0.539l-1.709-3.287v3.287h-0.539v-4.266h0.539l1.715,3.302v-3.302h0.533V24.847z"/>
		<path fill="#FFFFFF" d="M330.334,24.847h-0.537v-4.266h0.537V24.847z"/>
		<path fill="#FFFFFF" d="M333.264,23.73h-1.441l-0.332,1.116h-0.551l1.375-4.266h0.459l1.377,4.266H333.6L333.264,23.73z
			 M331.963,23.271h1.162l-0.582-1.939L331.963,23.271z"/>
	</g>
	<g>
		<path fill="#FFFFFF" d="M34.858,92.362h-0.536v-4.266h0.536V92.362z"/>
		<path fill="#FFFFFF" d="M37.088,90.635h-0.75v1.727h-0.539v-4.266h1.195c0.418,0,0.734,0.109,0.949,0.326
			c0.215,0.219,0.322,0.537,0.322,0.957c0,0.264-0.058,0.492-0.174,0.689c-0.116,0.195-0.281,0.344-0.494,0.443l0.826,1.814v0.035
			h-0.577L37.088,90.635z M36.338,90.176h0.65c0.225,0,0.404-0.072,0.538-0.217c0.134-0.146,0.201-0.34,0.201-0.582
			c0-0.549-0.248-0.822-0.744-0.822h-0.645V90.176z"/>
		<path fill="#FFFFFF" d="M41.028,90.389H39.52v1.512h1.758v0.461h-2.294v-4.266h2.265v0.459H39.52v1.375h1.509V90.389z"/>
		<path fill="#FFFFFF" d="M42.502,91.901h1.673v0.461h-2.212v-4.266h0.539V91.901z"/>
		<path fill="#FFFFFF" d="M46.803,91.245h-1.441l-0.331,1.117h-0.551l1.374-4.266h0.46l1.377,4.266H47.14L46.803,91.245z
			 M45.502,90.786h1.163l-0.583-1.939L45.502,90.786z"/>
		<path fill="#FFFFFF" d="M51.057,92.362h-0.539l-1.708-3.287v3.287h-0.539v-4.266h0.539l1.714,3.301v-3.301h0.533V92.362z"/>
		<path fill="#FFFFFF" d="M51.985,92.362v-4.266h1.017c0.498,0,0.885,0.156,1.16,0.467c0.275,0.313,0.413,0.75,0.413,1.314v0.715
			c0,0.564-0.14,1-0.419,1.307c-0.279,0.309-0.685,0.463-1.216,0.463H51.985z M52.521,88.555v3.346h0.431
			c0.377,0,0.652-0.107,0.826-0.324c0.174-0.215,0.263-0.535,0.267-0.959V89.86c0-0.449-0.086-0.779-0.259-0.988
			c-0.173-0.211-0.434-0.316-0.784-0.316H52.521z"/>
	</g>
	
		<path fill="#142D48" stroke="#41C0F0" stroke-width="0.5" stroke-linecap="round" stroke-linejoin="round" stroke-miterlimit="10" d="
		M199.063,160.091c0,0,0.105-2.44-2.52-2.92c-2.625-0.479-2.46-1.388-2.708-2.229c-0.126-0.428-0.892-1.541-0.892-1.541
		s-1.437,0.142-1.079,2.562c0.116,0.787,0.178,1.313,0.209,1.665c0.05,0.577,0.309,1.107,0.734,1.5
		c0.651,0.602,1.643,1.303,2.612,1.152C197.064,160.026,197.71,159.838,199.063,160.091"/>
	
		<path fill="#142D48" stroke="#41C0F0" stroke-width="0.5" stroke-linecap="round" stroke-linejoin="round" stroke-miterlimit="10" d="
		M111.105,205.484c0,0-0.771,3.053,3.917,2.865c0,0,3.094-1.563,5.906-0.563c2.813,1,1.781-1.531,1.781-1.531
		s-2.781-0.531-3.906-1.563s-1.937-1.813-3.031-1.688c-1.094,0.125-0.688,1.125-0.688,1.125S115.251,205.463,111.105,205.484"/>
	
		<path fill="#142D48" stroke="#41C0F0" stroke-width="0.5" stroke-linecap="round" stroke-linejoin="round" stroke-miterlimit="10" d="
		M173.366,194.13c0,0-2.107-0.337-4.312,0.656c-1.023,0.46-3.258,0.028-3.594,1.969c-1.063,6.125,3.062,1.063,3.062,1.063
		l3.938-3.313l0.937-0.375H173.366z"/>
	
		<path fill="#142D48" stroke="#41C0F0" stroke-width="0.5" stroke-linecap="round" stroke-linejoin="round" stroke-miterlimit="10" d="
		M371.525,89.639c-1.122,1.311,0.376,3.736,1.303,7.855c0.419,1.812,0.802,2.875,1.252,3.521c-2.022,0.912-5.418,1.096-5.418,1.096
		s-4.996,3.986-4.996,5.48c0,1.495-0.238,3.99-1.494,2.747c-1.244-1.249-6.479-1.252-7.724-0.501
		c-1.251,0.747-3.241-2.993-5.487-1.745c-2.241,1.244-5.234-1.744-5.488-0.501c-0.247,1.252-3.486,0.251-5.735-0.747
		c-2.237-0.997-6.231,0.501-7.726-1.248c-1.495-1.744-11.221-1.744-14.459-1.744c-3.239,0-3.991,1.744-5.489,3.243
		c-1.35,1.357-2.918,1.075-4.511,1.005c-0.18-1.65-0.168-3.552,0.149-4.624c0.559-1.87-2.806-2.992-2.806-4.3
		c0-1.309,3.176-3.556,4.863-4.299c1.682-0.751,1.122-5.989-0.376-7.296c-1.498-1.311-2.241-3.736-1.312-6.357
		c0.095-0.258,0.095-0.5,0.06-0.747c2.414,0.059,5.156,0.181,6.182,0.438c1.999,0.497,3.239-0.747,4.232-1.995
		c1.001-1.248,4.486-1.745,5.484-1.745c1.001,0,1.001-2.742,1.248-3.994c0.251-1.24,2.746-3.485,4.241-3.982
		c1.498-0.497,1.243-2.245,2.742-2.245c1.498,0,1.244-1.999,0.997-3.247c-0.25-1.236,0.247-2.989,2.246-4.483
		c1.995-1.494,3.985-0.751,5.73-0.751c1.749,0,1.995-1.991,3.247-2.989c0.7-0.563,1.792-0.884,2.621-1.056
		c0.117,0.25,0.259,0.47,0.427,0.614c1.119,0.938,2.429,1.874,4.491,1.311c2.058-0.56,3.364,0.376,4.295,2.062
		c0.938,1.678,2.434,0.935,4.495,0c2.05-0.938,6.725,1.678,7.852,2.241c1.121,0.56,0.559,3.74,0.743,5.794
		c0.188,2.062-1.115,4.675,0.938,5.989c2.059,1.307,1.494,4.3,3.924,5.234C374.702,78.611,372.645,88.329,371.525,89.639z"/>
	<g>
		<g>
			<path fill="#FFFFFF" d="M318.844,95.617V90.64h1.419c0.453,0,0.795,0.11,1.023,0.332c0.229,0.221,0.344,0.552,0.344,0.994
				c0,0.232-0.058,0.438-0.175,0.615c-0.115,0.178-0.273,0.315-0.471,0.414c0.228,0.068,0.408,0.208,0.541,0.42
				c0.134,0.212,0.2,0.467,0.2,0.766c0,0.446-0.122,0.798-0.367,1.053s-0.595,0.383-1.048,0.383H318.844z M319.47,92.763h0.804
				c0.216,0,0.391-0.073,0.524-0.22c0.133-0.146,0.2-0.34,0.2-0.582c0-0.274-0.061-0.474-0.182-0.598
				c-0.121-0.125-0.306-0.187-0.554-0.187h-0.793V92.763z M319.47,93.289v1.791h0.854c0.237,0,0.425-0.077,0.564-0.233
				c0.139-0.156,0.208-0.376,0.208-0.658c0-0.6-0.253-0.899-0.759-0.899H319.47z"/>
			<path fill="#FFFFFF" d="M325.047,93.316h-1.76v1.764h2.051v0.537h-2.676V90.64h2.642v0.537h-2.017v1.603h1.76V93.316z"/>
			<path fill="#FFFFFF" d="M326.768,95.08h1.951v0.537h-2.58V90.64h0.629V95.08z"/>
			<path fill="#FFFFFF" d="M331.785,94.314h-1.682l-0.387,1.303h-0.643l1.604-4.977h0.537l1.605,4.977h-0.643L331.785,94.314z
				 M330.268,93.778h1.357l-0.681-2.263L330.268,93.778z"/>
			<path fill="#FFFFFF" d="M335.002,93.603h-0.875v2.014h-0.629V90.64h1.395c0.487,0,0.856,0.127,1.107,0.381
				c0.25,0.254,0.375,0.626,0.375,1.116c0,0.308-0.067,0.576-0.203,0.805c-0.136,0.229-0.327,0.401-0.576,0.519l0.965,2.115v0.041
				h-0.674L335.002,93.603z M334.127,93.067h0.758c0.263,0,0.472-0.084,0.628-0.253s0.233-0.396,0.233-0.679
				c0-0.639-0.289-0.958-0.867-0.958h-0.752V93.067z"/>
			<path fill="#FFFFFF" d="M340.18,90.64v3.537c-0.005,0.473-0.142,0.842-0.41,1.107c-0.27,0.268-0.645,0.4-1.125,0.4
				c-0.492,0-0.868-0.131-1.128-0.392s-0.392-0.633-0.396-1.116V90.64h0.622v3.511c0,0.335,0.071,0.585,0.214,0.75
				s0.372,0.247,0.688,0.247c0.319,0,0.55-0.082,0.692-0.247s0.214-0.415,0.214-0.75V90.64H340.18z"/>
			<path fill="#FFFFFF" d="M343.316,94.359c0-0.248-0.066-0.438-0.201-0.57c-0.135-0.133-0.377-0.262-0.729-0.387
				c-0.351-0.125-0.619-0.257-0.805-0.395s-0.324-0.295-0.417-0.472c-0.092-0.177-0.138-0.379-0.138-0.606
				c0-0.395,0.131-0.72,0.395-0.975c0.263-0.255,0.607-0.383,1.033-0.383c0.292,0,0.552,0.065,0.779,0.195
				c0.229,0.13,0.404,0.312,0.527,0.543c0.123,0.232,0.184,0.487,0.184,0.766h-0.629c0-0.308-0.073-0.546-0.222-0.715
				c-0.148-0.168-0.361-0.252-0.64-0.252c-0.252,0-0.448,0.07-0.588,0.212c-0.139,0.142-0.208,0.34-0.208,0.596
				c0,0.21,0.075,0.386,0.226,0.527s0.383,0.269,0.697,0.38c0.49,0.162,0.84,0.361,1.051,0.599s0.316,0.547,0.316,0.93
				c0,0.403-0.131,0.727-0.393,0.969c-0.263,0.243-0.619,0.364-1.07,0.364c-0.289,0-0.557-0.063-0.802-0.189
				c-0.245-0.127-0.438-0.305-0.577-0.533c-0.141-0.229-0.211-0.492-0.211-0.788h0.629c0,0.308,0.087,0.547,0.259,0.718
				s0.406,0.256,0.702,0.256c0.275,0,0.483-0.07,0.622-0.211C343.247,94.795,343.316,94.603,343.316,94.359z"/>
		</g>
	</g>
	
		<path fill="#142D48" stroke="#41C0F0" stroke-width="0.5" stroke-linecap="round" stroke-linejoin="round" stroke-miterlimit="10" d="
		M374.955,101.764c-0.332-0.142-0.617-0.374-0.875-0.749c-2.022,0.912-5.418,1.096-5.418,1.096s-4.996,3.986-4.996,5.48
		c0,1.495-0.238,3.99-1.494,2.747c-1.244-1.249-6.479-1.252-7.723-0.501c-1.252,0.747-3.242-2.993-5.488-1.745
		c-2.241,1.244-5.234-1.744-5.488-0.501c-0.247,1.252-3.486,0.251-5.735-0.747c-2.237-0.997-6.231,0.501-7.726-1.248
		c-1.495-1.744-11.221-1.744-14.459-1.744c-3.239,0-3.991,1.744-5.489,3.243c-1.35,1.357-2.918,1.075-4.511,1.005
		c0.141,1.26,0.388,2.379,0.708,2.856c0.748,1.122,4.304,6.544,3.365,8.23c-0.932,1.683-2.617,1.683-3.74,2.988
		c-1.123,1.311-7.668,7.108-7.852,8.04c-0.188,0.935,1.123,5.05,0.184,5.801c-0.927,0.747-3.74,4.675-3.74,6.166
		c0,1.498,2.059,3.557,3.74,4.115c0.708,0.242,1.166,0.575,1.373,0.97c1.308-0.18,2.508-0.281,3.247-0.281
		c1.248,0,6.732,1.503,8.47,1.503c1.749,0,4.245,0.742,4.992,1.493c0.751,0.744,2.491,0.243,3.739-1.001s2.746-0.492,4.241-0.492
		c1.489,0,3.989-1.257,4.737-2.496c0.747-1.245,8.23-3.248,10.218-3.498c1.995-0.242,4.988,3.74,6.733,3.74
		c1.752,0,4.983,1.252,5.985,4.491c1.001,3.243,3.99,7.233,5.232,8.473c1.245,1.252,1.992,4.491,1.992,5.489
		c0,0.997-2.738-0.251-5.734-0.998c-2.985-0.751-3.239,2.246-3.239,3.74s-4.236,6.729-4.984,7.729
		c-0.751,1.002,1.499,1.746,3.243,1.991c0.743,0.105,3.74-1.991,4.733-1.991c0.407,0,1.647,0.959,2.974,2.094
		c-0.286-3.9,0.524-3.681,4.006-6.326c3.618-2.742,3.99-7.855,7.229-8.48c2.795-0.539,4.201-1.722,7.562-1.564
		c0.253,0.012,0.795-0.372,0.795-0.789c0-0.383,0-49.037,0-57.034C375.763,102.342,375.197,101.868,374.955,101.764z"/>
	<g>
		<g>
			<path fill="#FFFFFF" d="M327.136,123.908v3.538c-0.005,0.471-0.142,0.84-0.41,1.107c-0.27,0.266-0.645,0.399-1.125,0.399
				c-0.492,0-0.868-0.131-1.128-0.392s-0.392-0.633-0.396-1.115v-3.538h0.622v3.511c0,0.335,0.071,0.585,0.214,0.75
				s0.372,0.248,0.688,0.248c0.319,0,0.55-0.083,0.692-0.248s0.214-0.415,0.214-0.75v-3.511H327.136z"/>
			<path fill="#FFFFFF" d="M329.214,126.59l-0.489,0.592v1.702h-0.626v-4.977h0.626v2.403l0.41-0.544l1.34-1.859h0.752l-1.616,2.19
				l1.742,2.786h-0.748L329.214,126.59z"/>
			<path fill="#FFFFFF" d="M333.417,126.872h-0.875v2.013h-0.629v-4.977h1.395c0.488,0,0.857,0.127,1.107,0.381
				c0.251,0.254,0.377,0.626,0.377,1.116c0,0.308-0.068,0.576-0.204,0.805c-0.136,0.229-0.327,0.402-0.575,0.518l0.963,2.116v0.041
				h-0.673L333.417,126.872z M332.542,126.334h0.76c0.262,0,0.471-0.084,0.627-0.253s0.234-0.396,0.234-0.679
				c0-0.639-0.29-0.959-0.869-0.959h-0.752V126.334z"/>
			<path fill="#FFFFFF" d="M337.95,127.583h-1.682l-0.387,1.302h-0.643l1.604-4.977h0.537l1.605,4.977h-0.643L337.95,127.583z
				 M336.433,127.045h1.357l-0.681-2.263L336.433,127.045z"/>
			<path fill="#FFFFFF" d="M340.315,128.884h-0.625v-4.977h0.625V128.884z"/>
			<path fill="#FFFFFF" d="M344.663,128.884h-0.629l-1.992-3.835v3.835h-0.629v-4.977h0.629l1.999,3.853v-3.853h0.622V128.884z"/>
			<path fill="#FFFFFF" d="M348.132,126.584h-1.76v1.764h2.051v0.536h-2.676v-4.977h2.642v0.536h-2.017v1.604h1.76V126.584z"/>
		</g>
	</g>
	<path fill="#41C0F0" stroke="#41C0F0" stroke-width="0.5" stroke-miterlimit="10" d="M263.651,127.035
		c-1.4-0.829-5.297-0.278-5.579-1.393c-0.27-1.111-0.547-3.06-2.222-3.06c-1.674,0-3.9-1.11-4.733,0.833
		c-0.837,1.952-4.178-0.559-4.464-1.952c-0.27-1.393-1.666-2.504-5.566-3.9c-1.545-0.551-3.306-1.67-4.875-2.828
		c-0.129,0.337-0.281,0.649-0.445,0.893c-0.747,1.126-3.364-0.932-4.487,0.191c-1.123,1.122-4.862,1.307-6.916,3.181
		c-2.059,1.87-6.361,2.801-8.791,3.364c-2.433,0.563-0.371,2.805,0.56,4.49c0.939,1.675,0.939,5.794,2.809,7.104
		c1.87,1.307,8.039,5.234,8.787,6.545c0.129,0.223,0.051,0.435-0.105,0.63c2.593,0.7,6.639,0.716,7.339-0.45
		c0.837-1.389,1.396-3.9,1.396-3.9s5.566,0,7.793,2.512c2.233,2.504,6.411,0.829,6.411,0.829s0.231,0.712,0.606,1.702
		c0.603-1.377,1.389-2.586,2.344-2.727c2.351-0.333,5.695-0.668,8.043-4.021c1.217-1.726,3.22-3.099,4.886-4.021
		C265.314,129.68,264.731,127.688,263.651,127.035"/>
	<g>
		<path fill="#142D48" d="M227.064,124.258c-0.021,0.486-0.158,0.854-0.41,1.104s-0.607,0.375-1.066,0.375
			c-0.482,0-0.853-0.158-1.108-0.477c-0.258-0.316-0.386-0.77-0.386-1.357v-0.718c0-0.586,0.133-1.037,0.398-1.354
			s0.635-0.477,1.107-0.477c0.465,0,0.817,0.13,1.06,0.39c0.24,0.26,0.378,0.633,0.411,1.119h-0.864
			c-0.008-0.301-0.055-0.509-0.139-0.622c-0.086-0.115-0.241-0.172-0.468-0.172c-0.23,0-0.394,0.08-0.489,0.242
			c-0.096,0.16-0.146,0.426-0.152,0.795v0.806c0,0.424,0.047,0.715,0.143,0.873c0.094,0.158,0.257,0.237,0.487,0.237
			c0.227,0,0.383-0.055,0.469-0.166c0.086-0.109,0.135-0.31,0.146-0.599H227.064z"/>
		<path fill="#142D48" d="M228.488,124.964h1.758v0.715h-2.766v-0.519l1.74-3.029h-1.758v-0.718h2.751v0.507L228.488,124.964z"/>
		<path fill="#142D48" d="M232.979,123.833h-1.342v1.131h1.588v0.715h-2.449v-4.266h2.443v0.718h-1.582v1.008h1.342V123.833z"/>
		<path fill="#142D48" d="M236.612,124.258c-0.021,0.486-0.158,0.854-0.41,1.104s-0.607,0.375-1.066,0.375
			c-0.482,0-0.853-0.158-1.109-0.477c-0.257-0.316-0.385-0.77-0.385-1.357v-0.718c0-0.586,0.133-1.037,0.398-1.354
			s0.635-0.477,1.107-0.477c0.465,0,0.817,0.13,1.059,0.39s0.379,0.633,0.412,1.119h-0.864c-0.008-0.301-0.054-0.509-0.14-0.622
			c-0.084-0.115-0.24-0.172-0.467-0.172c-0.23,0-0.394,0.08-0.489,0.242c-0.096,0.16-0.146,0.426-0.152,0.795v0.806
			c0,0.424,0.047,0.715,0.142,0.873s0.258,0.237,0.488,0.237c0.227,0,0.383-0.055,0.469-0.166c0.086-0.109,0.135-0.31,0.146-0.599
			H236.612z"/>
		<path fill="#142D48" d="M240.134,125.679h-0.858v-1.825h-1.271v1.825h-0.861v-4.266h0.861v1.726h1.271v-1.726h0.858V125.679z"/>
		<path fill="#142D48" d="M221.597,130.121h-0.428v1.559h-0.861v-4.266h1.374c0.432,0,0.765,0.112,1.001,0.336
			c0.234,0.224,0.353,0.541,0.353,0.953c0,0.566-0.206,0.963-0.618,1.189l0.747,1.746v0.041h-0.926L221.597,130.121z
			 M221.169,129.403h0.489c0.172,0,0.301-0.058,0.387-0.171c0.086-0.115,0.129-0.268,0.129-0.459c0-0.428-0.167-0.642-0.501-0.642
			h-0.504V129.403z"/>
		<path fill="#142D48" d="M225.83,129.833h-1.342v1.131h1.588v0.715h-2.449v-4.266h2.443v0.718h-1.582v1.008h1.342V129.833z"/>
		<path fill="#142D48" d="M227.433,130.179v1.5h-0.861v-4.266h1.453c0.422,0,0.758,0.131,1.01,0.393
			c0.25,0.262,0.376,0.602,0.376,1.02s-0.124,0.748-0.372,0.99s-0.592,0.363-1.031,0.363H227.433z M227.433,129.461h0.592
			c0.164,0,0.291-0.054,0.381-0.161s0.135-0.264,0.135-0.469c0-0.213-0.046-0.383-0.138-0.508c-0.092-0.127-0.215-0.19-0.369-0.192
			h-0.601V129.461z"/>
		<path fill="#142D48" d="M232.759,127.414v2.953c-0.004,0.443-0.126,0.783-0.366,1.018c-0.24,0.236-0.585,0.354-1.034,0.354
			c-0.457,0-0.807-0.119-1.047-0.357c-0.242-0.238-0.362-0.583-0.362-1.034v-2.933h0.867v2.936c0,0.242,0.039,0.415,0.117,0.519
			s0.22,0.155,0.425,0.155s0.346-0.051,0.422-0.154c0.076-0.102,0.115-0.271,0.117-0.505v-2.95H232.759z"/>
		<path fill="#142D48" d="M233.412,131.679v-4.266h1.318c0.445,0,0.784,0.1,1.015,0.297c0.232,0.199,0.348,0.489,0.348,0.872
			c0,0.217-0.048,0.403-0.144,0.56s-0.227,0.271-0.393,0.343c0.191,0.055,0.339,0.165,0.442,0.329
			c0.104,0.166,0.155,0.369,0.155,0.611c0,0.414-0.114,0.727-0.341,0.938c-0.229,0.211-0.558,0.316-0.989,0.316H233.412z
			 M234.273,129.198h0.448c0.338,0,0.507-0.175,0.507-0.524c0-0.193-0.039-0.332-0.117-0.416s-0.205-0.126-0.381-0.126h-0.457
			V129.198z M234.273,129.825v1.14h0.551c0.154,0,0.271-0.048,0.352-0.144s0.12-0.231,0.12-0.407c0-0.383-0.139-0.579-0.416-0.589
			H234.273z"/>
		<path fill="#142D48" d="M237.64,130.964h1.512v0.715h-2.373v-4.266h0.861V130.964z"/>
		<path fill="#142D48" d="M240.549,131.679h-0.861v-4.266h0.861V131.679z"/>
		<path fill="#142D48" d="M244.164,130.258c-0.021,0.486-0.158,0.854-0.41,1.104s-0.607,0.375-1.066,0.375
			c-0.482,0-0.853-0.158-1.108-0.477c-0.258-0.316-0.386-0.77-0.386-1.357v-0.718c0-0.586,0.133-1.037,0.398-1.354
			s0.635-0.477,1.107-0.477c0.465,0,0.817,0.13,1.06,0.39c0.24,0.26,0.378,0.633,0.411,1.119h-0.864
			c-0.008-0.301-0.055-0.509-0.139-0.622c-0.086-0.115-0.241-0.172-0.468-0.172c-0.23,0-0.394,0.08-0.489,0.242
			c-0.096,0.16-0.146,0.426-0.152,0.795v0.806c0,0.424,0.047,0.715,0.143,0.873c0.094,0.158,0.257,0.237,0.487,0.237
			c0.227,0,0.383-0.055,0.469-0.166c0.086-0.109,0.135-0.31,0.146-0.599H244.164z"/>
	</g>
	<g>
		<path fill="#142D48" d="M251.043,135.932v-3.555h1.014c0.324,0,0.568,0.08,0.732,0.236c0.162,0.158,0.244,0.396,0.244,0.711
			c0,0.166-0.041,0.313-0.125,0.439c-0.082,0.127-0.195,0.227-0.336,0.295c0.162,0.049,0.291,0.15,0.387,0.301
			c0.096,0.152,0.143,0.334,0.143,0.547c0,0.32-0.088,0.57-0.262,0.752c-0.176,0.184-0.424,0.273-0.748,0.273H251.043z
			 M251.49,133.893h0.574c0.154,0,0.279-0.051,0.375-0.156c0.096-0.104,0.143-0.242,0.143-0.416c0-0.195-0.043-0.338-0.129-0.426
			c-0.086-0.09-0.219-0.135-0.396-0.135h-0.566V133.893z M251.49,134.27v1.279h0.611c0.168,0,0.303-0.057,0.402-0.168
			s0.148-0.268,0.148-0.469c0-0.428-0.18-0.643-0.541-0.643H251.49z"/>
		<path fill="#142D48" d="M254.801,133.696c-0.061-0.012-0.125-0.018-0.195-0.018c-0.221,0-0.377,0.123-0.465,0.365v1.889h-0.432
			v-2.641h0.42l0.008,0.268c0.115-0.211,0.279-0.316,0.49-0.316c0.068,0,0.125,0.012,0.172,0.033L254.801,133.696z"/>
		<path fill="#142D48" d="M255.639,133.292l0.012,0.285c0.168-0.223,0.383-0.334,0.643-0.334c0.467,0,0.703,0.311,0.711,0.934v1.756
			h-0.43v-1.736c0-0.205-0.035-0.354-0.104-0.439c-0.07-0.088-0.174-0.131-0.313-0.131c-0.107,0-0.203,0.035-0.289,0.107
			s-0.154,0.166-0.207,0.281v1.918h-0.432v-2.641H255.639z"/>
		<path fill="#142D48" d="M257.561,134.489c0-0.383,0.094-0.688,0.279-0.91c0.188-0.225,0.434-0.336,0.738-0.336
			c0.307,0,0.553,0.109,0.738,0.326c0.188,0.219,0.283,0.516,0.287,0.891v0.279c0,0.383-0.092,0.686-0.277,0.908
			s-0.434,0.334-0.742,0.334c-0.307,0-0.553-0.107-0.736-0.324c-0.186-0.217-0.281-0.51-0.287-0.879V134.489z M257.992,134.739
			c0,0.271,0.055,0.486,0.16,0.641c0.107,0.156,0.25,0.232,0.432,0.232c0.381,0,0.576-0.273,0.588-0.824v-0.299
			c0-0.27-0.055-0.482-0.162-0.641c-0.107-0.156-0.25-0.234-0.432-0.234c-0.178,0-0.318,0.078-0.426,0.234
			c-0.105,0.158-0.16,0.371-0.16,0.639V134.739z"/>
	</g>
	<circle fill="#E20613" stroke="#FFFFFF" stroke-width="0.5" stroke-miterlimit="10" cx="248.001" cy="134.239" r="1.984"/>
</g>
</svg>
