<?xml version="1.0" encoding="utf-8"?>
<!-- Generator: Adobe Illustrator 15.1.0, SVG Export Plug-In . SVG Version: 6.00 Build 0)  -->
<!DOCTYPE svg PUBLIC "-//W3C//DTD SVG 1.1//EN" "http://www.w3.org/Graphics/SVG/1.1/DTD/svg11.dtd">
<svg version="1.1" id="Vrstva_1" xmlns="http://www.w3.org/2000/svg" xmlns:xlink="http://www.w3.org/1999/xlink" x="0px" y="0px"
	 width="85.04px" height="85.04px" viewBox="0 0 85.04 85.04" enable-background="new 0 0 85.04 85.04" xml:space="preserve">
<g>
	<path fill="#41C0F0" d="M22.207,25.204h-5.67c-2.059,0-3.734-1.675-3.734-3.734V15.8c0-2.059,1.675-3.734,3.734-3.734h5.67
		c2.059,0,3.734,1.675,3.734,3.734v5.67C25.94,23.529,24.266,25.204,22.207,25.204z M16.537,13.866
		c-1.066,0-1.934,0.868-1.934,1.934v5.67c0,1.066,0.868,1.934,1.934,1.934h5.67c1.066,0,1.934-0.868,1.934-1.934V15.8
		c0-1.066-0.868-1.934-1.934-1.934H16.537z"/>
	<path fill="#142D48" d="M37.796,25.204h-5.668c-2.06,0-3.736-1.675-3.736-3.734V15.8c0-2.059,1.676-3.734,3.736-3.734h5.668
		c2.06,0,3.736,1.675,3.736,3.734v5.67C41.532,23.529,39.856,25.204,37.796,25.204z M32.128,13.866
		c-1.067,0-1.936,0.868-1.936,1.934v5.67c0,1.066,0.869,1.934,1.936,1.934h5.668c1.067,0,1.936-0.868,1.936-1.934V15.8
		c0-1.066-0.869-1.934-1.936-1.934H32.128z"/>
	<path fill="#E20613" d="M53.388,25.204h-5.67c-2.06,0-3.733-1.675-3.733-3.734V15.8c0-2.059,1.674-3.734,3.733-3.734h5.67
		c2.06,0,3.733,1.675,3.733,3.734v5.67C57.122,23.529,55.448,25.204,53.388,25.204z M47.718,13.866
		c-1.066,0-1.935,0.868-1.935,1.934v5.67c0,1.066,0.868,1.934,1.935,1.934h5.67c1.066,0,1.935-0.868,1.935-1.934V15.8
		c0-1.066-0.868-1.934-1.935-1.934H47.718z"/>
	<path fill="#41C0F0" d="M68.978,25.204H63.31c-2.06,0-3.735-1.675-3.735-3.734V15.8c0-2.059,1.676-3.734,3.735-3.734h5.668
		c2.06,0,3.735,1.675,3.735,3.734v5.67C72.713,23.529,71.038,25.204,68.978,25.204z M63.31,13.866c-1.067,0-1.937,0.868-1.937,1.934
		v5.67c0,1.066,0.869,1.934,1.937,1.934h5.668c1.067,0,1.937-0.868,1.937-1.934V15.8c0-1.066-0.869-1.934-1.937-1.934H63.31z"/>
	<path fill="#142D48" d="M22.207,40.795h-5.67c-2.059,0-3.734-1.675-3.734-3.735v-5.669c0-2.06,1.675-3.735,3.734-3.735h5.67
		c2.059,0,3.734,1.675,3.734,3.735v5.669C25.94,39.12,24.266,40.795,22.207,40.795z M16.537,29.456
		c-1.066,0-1.934,0.868-1.934,1.935v5.669c0,1.067,0.868,1.935,1.934,1.935h5.67c1.066,0,1.934-0.868,1.934-1.935v-5.669
		c0-1.067-0.868-1.935-1.934-1.935H16.537z"/>
	<path fill="#E20613" d="M37.796,40.795h-5.668c-2.06,0-3.736-1.675-3.736-3.735v-5.669c0-2.06,1.676-3.735,3.736-3.735h5.668
		c2.06,0,3.736,1.675,3.736,3.735v5.669C41.532,39.12,39.856,40.795,37.796,40.795z M32.128,29.456
		c-1.067,0-1.936,0.868-1.936,1.935v5.669c0,1.067,0.869,1.935,1.936,1.935h5.668c1.067,0,1.936-0.868,1.936-1.935v-5.669
		c0-1.067-0.869-1.935-1.936-1.935H32.128z"/>
	<path fill="#41C0F0" d="M53.388,40.795h-5.67c-2.06,0-3.733-1.675-3.733-3.735v-5.669c0-2.06,1.674-3.735,3.733-3.735h5.67
		c2.06,0,3.733,1.675,3.733,3.735v5.669C57.122,39.12,55.448,40.795,53.388,40.795z M47.718,29.456
		c-1.066,0-1.935,0.868-1.935,1.935v5.669c0,1.067,0.868,1.935,1.935,1.935h5.67c1.066,0,1.935-0.868,1.935-1.935v-5.669
		c0-1.067-0.868-1.935-1.935-1.935H47.718z"/>
	<path fill="#142D48" d="M68.978,40.795H63.31c-2.06,0-3.735-1.675-3.735-3.735v-5.669c0-2.06,1.676-3.735,3.735-3.735h5.668
		c2.06,0,3.735,1.675,3.735,3.735v5.669C72.713,39.12,71.038,40.795,68.978,40.795z M63.31,29.456c-1.067,0-1.937,0.868-1.937,1.935
		v5.669c0,1.067,0.869,1.935,1.937,1.935h5.668c1.067,0,1.937-0.868,1.937-1.935v-5.669c0-1.067-0.869-1.935-1.937-1.935H63.31z"/>
	<path fill="#E20613" d="M22.207,56.385h-5.67c-2.059,0-3.734-1.675-3.734-3.734v-5.669c0-2.06,1.675-3.735,3.734-3.735h5.67
		c2.059,0,3.734,1.675,3.734,3.735v5.669C25.94,54.71,24.266,56.385,22.207,56.385z M16.537,45.047
		c-1.066,0-1.934,0.867-1.934,1.935v5.669c0,1.066,0.868,1.936,1.934,1.936h5.67c1.066,0,1.934-0.869,1.934-1.936v-5.669
		c0-1.067-0.868-1.935-1.934-1.935H16.537z"/>
	<path fill="#41C0F0" d="M37.796,56.385h-5.668c-2.06,0-3.736-1.675-3.736-3.734v-5.669c0-2.06,1.676-3.735,3.736-3.735h5.668
		c2.06,0,3.736,1.675,3.736,3.735v5.669C41.532,54.71,39.856,56.385,37.796,56.385z M32.128,45.047
		c-1.067,0-1.936,0.867-1.936,1.935v5.669c0,1.066,0.869,1.936,1.936,1.936h5.668c1.067,0,1.936-0.869,1.936-1.936v-5.669
		c0-1.067-0.869-1.935-1.936-1.935H32.128z"/>
	<path fill="#142D48" d="M53.388,56.385h-5.67c-2.06,0-3.733-1.675-3.733-3.734v-5.669c0-2.06,1.674-3.735,3.733-3.735h5.67
		c2.06,0,3.733,1.675,3.733,3.735v5.669C57.122,54.71,55.448,56.385,53.388,56.385z M47.718,45.047
		c-1.066,0-1.935,0.867-1.935,1.935v5.669c0,1.066,0.868,1.936,1.935,1.936h5.67c1.066,0,1.935-0.869,1.935-1.936v-5.669
		c0-1.067-0.868-1.935-1.935-1.935H47.718z"/>
	<path fill="#E20613" d="M68.978,56.385H63.31c-2.06,0-3.735-1.675-3.735-3.734v-5.669c0-2.06,1.676-3.735,3.735-3.735h5.668
		c2.06,0,3.735,1.675,3.735,3.735v5.669C72.713,54.71,71.038,56.385,68.978,56.385z M63.31,45.047c-1.067,0-1.937,0.867-1.937,1.935
		v5.669c0,1.066,0.869,1.936,1.937,1.936h5.668c1.067,0,1.937-0.869,1.937-1.936v-5.669c0-1.067-0.869-1.935-1.937-1.935H63.31z"/>
	<path fill="#41C0F0" d="M22.207,71.976h-5.67c-2.059,0-3.734-1.676-3.734-3.735v-5.669c0-2.06,1.675-3.733,3.734-3.733h5.67
		c2.059,0,3.734,1.674,3.734,3.733v5.669C25.94,70.3,24.266,71.976,22.207,71.976z M16.537,60.637c-1.066,0-1.934,0.868-1.934,1.935
		v5.669c0,1.067,0.868,1.935,1.934,1.935h5.67c1.066,0,1.934-0.867,1.934-1.935v-5.669c0-1.066-0.868-1.935-1.934-1.935H16.537z"/>
	<path fill="#142D48" d="M37.796,71.976h-5.668c-2.06,0-3.736-1.676-3.736-3.735v-5.669c0-2.06,1.676-3.733,3.736-3.733h5.668
		c2.06,0,3.736,1.674,3.736,3.733v5.669C41.532,70.3,39.856,71.976,37.796,71.976z M32.128,60.637c-1.067,0-1.936,0.868-1.936,1.935
		v5.669c0,1.067,0.869,1.935,1.936,1.935h5.668c1.067,0,1.936-0.867,1.936-1.935v-5.669c0-1.066-0.869-1.935-1.936-1.935H32.128z"/>
	<path fill="#E20613" d="M53.388,71.976h-5.67c-2.06,0-3.733-1.676-3.733-3.735v-5.669c0-2.06,1.674-3.733,3.733-3.733h5.67
		c2.06,0,3.733,1.674,3.733,3.733v5.669C57.122,70.3,55.448,71.976,53.388,71.976z M47.718,60.637c-1.066,0-1.935,0.868-1.935,1.935
		v5.669c0,1.067,0.868,1.935,1.935,1.935h5.67c1.066,0,1.935-0.867,1.935-1.935v-5.669c0-1.066-0.868-1.935-1.935-1.935H47.718z"/>
	<path fill="#41C0F0" d="M68.978,71.976H63.31c-2.06,0-3.735-1.676-3.735-3.735v-5.669c0-2.06,1.676-3.733,3.735-3.733h5.668
		c2.06,0,3.735,1.674,3.735,3.733v5.669C72.713,70.3,71.038,71.976,68.978,71.976z M63.31,60.637c-1.067,0-1.937,0.868-1.937,1.935
		v5.669c0,1.067,0.869,1.935,1.937,1.935h5.668c1.067,0,1.937-0.867,1.937-1.935v-5.669c0-1.066-0.869-1.935-1.937-1.935H63.31z"/>
</g>
</svg>
