<?xml version="1.0" encoding="utf-8"?>
<!-- Generator: Adobe Illustrator 15.1.0, SVG Export Plug-In . SVG Version: 6.00 Build 0)  -->
<!DOCTYPE svg PUBLIC "-//W3C//DTD SVG 1.1//EN" "http://www.w3.org/Graphics/SVG/1.1/DTD/svg11.dtd">
<svg version="1.1" id="Vrstva_1" xmlns="http://www.w3.org/2000/svg" xmlns:xlink="http://www.w3.org/1999/xlink" x="0px" y="0px"
	 width="85.04px" height="85.04px" viewBox="0 0 85.04 85.04" enable-background="new 0 0 85.04 85.04" xml:space="preserve">
<g>
	<path fill="#41C0F0" d="M13.934,72.653c-0.461,0-0.921-0.176-1.272-0.527c-0.703-0.702-0.703-1.843,0-2.545l56.693-56.693
		c0.703-0.702,1.842-0.703,2.545,0s0.703,1.843,0,2.546L15.207,72.125C14.855,72.477,14.395,72.653,13.934,72.653z"/>
	<path fill="#142D48" d="M36.611,32.068c-5.186,0-9.404-4.218-9.404-9.404s4.219-9.404,9.404-9.404s9.404,4.218,9.404,9.404
		S41.796,32.068,36.611,32.068z M36.611,15.061c-4.192,0-7.604,3.411-7.604,7.604s3.411,7.604,7.604,7.604s7.604-3.411,7.604-7.604
		S40.803,15.061,36.611,15.061z"/>
	<path fill="#E20613" d="M47.95,71.753c-5.186,0-9.404-4.219-9.404-9.404c0-5.185,4.219-9.403,9.404-9.403s9.404,4.219,9.404,9.403
		C57.354,67.535,53.135,71.753,47.95,71.753z M47.95,54.747c-4.192,0-7.604,3.41-7.604,7.603s3.411,7.604,7.604,7.604
		s7.604-3.411,7.604-7.604S52.142,54.747,47.95,54.747z"/>
</g>
</svg>
