<?xml version="1.0" encoding="utf-8"?>
<!-- Generator: Adobe Illustrator 15.1.0, SVG Export Plug-In . SVG Version: 6.00 Build 0)  -->
<!DOCTYPE svg PUBLIC "-//W3C//DTD SVG 1.1//EN" "http://www.w3.org/Graphics/SVG/1.1/DTD/svg11.dtd">
<svg version="1.1" id="Vrstva_1" xmlns="http://www.w3.org/2000/svg" xmlns:xlink="http://www.w3.org/1999/xlink" x="0px" y="0px"
	 width="85.04px" height="85.04px" viewBox="0 0 85.04 85.04" enable-background="new 0 0 85.04 85.04" xml:space="preserve">
<g>
	<g>
		<g>
			<path fill="#41C0F0" d="M19.611,29.01h-0.527V15.456l-4.082,1.533v-0.576l4.502-1.66h0.107V29.01z"/>
		</g>
	</g>
	<g>
		<g>
			<path fill="#142D48" d="M47.26,29.01h-8.506v-0.527l4.854-5.596c0.795-0.931,1.385-1.758,1.772-2.48s0.581-1.387,0.581-1.992
				c0-1.042-0.303-1.851-0.908-2.427s-1.459-0.864-2.559-0.864c-0.664,0-1.27,0.159-1.816,0.479s-0.975,0.76-1.284,1.323
				s-0.464,1.189-0.464,1.88h-0.527c0-0.762,0.176-1.468,0.527-2.119s0.84-1.162,1.465-1.533s1.324-0.557,2.1-0.557
				c1.264,0,2.246,0.335,2.949,1.006s1.055,1.608,1.055,2.813c0,1.106-0.621,2.432-1.865,3.975l-0.889,1.084l-4.297,5.01h7.813
				V29.01z"/>
		</g>
	</g>
	<g>
		<g>
			<path fill="#41C0F0" d="M65.417,21.491h1.191c1.113-0.02,2.014-0.315,2.701-0.889c0.687-0.573,1.029-1.302,1.029-2.188
				c0-1.009-0.307-1.81-0.922-2.402s-1.471-0.889-2.564-0.889c-1.067,0-1.946,0.313-2.637,0.938
				c-0.689,0.625-1.035,1.445-1.035,2.461h-0.527c0-0.755,0.183-1.433,0.547-2.031c0.365-0.599,0.869-1.064,1.514-1.396
				s1.357-0.498,2.139-0.498c1.23,0,2.207,0.347,2.93,1.039s1.084,1.63,1.084,2.813c0,0.755-0.238,1.428-0.717,2.02
				s-1.125,1.011-1.939,1.258c0.932,0.215,1.659,0.619,2.184,1.212c0.523,0.594,0.785,1.359,0.785,2.298
				c0,1.213-0.387,2.178-1.162,2.895c-0.774,0.717-1.8,1.075-3.076,1.075c-0.859,0-1.653-0.187-2.383-0.558
				c-0.729-0.372-1.279-0.865-1.65-1.479c-0.371-0.614-0.557-1.322-0.557-2.125h0.527c0,1.045,0.385,1.912,1.152,2.601
				c0.769,0.688,1.738,1.033,2.91,1.033c1.166,0,2.076-0.302,2.73-0.906c0.654-0.604,0.98-1.438,0.98-2.502
				c0-1.052-0.35-1.854-1.049-2.41c-0.7-0.555-1.725-0.835-3.072-0.842h-1.113V21.491z"/>
		</g>
	</g>
	<g>
		<g>
			<path fill="#142D48" d="M21.398,45.578h2.461v0.527h-2.461v3.877h-0.527v-3.877h-6.895v-0.293l6.787-10.049h0.635V45.578z
				 M14.796,45.578h6.074v-9.18l-0.82,1.348L14.796,45.578z"/>
		</g>
	</g>
	<g>
		<g>
			<path fill="#41C0F0" d="M39.516,42.541l0.664-6.777h6.934v0.527h-6.455l-0.576,5.693c0.338-0.28,0.786-0.508,1.343-0.684
				s1.103-0.264,1.636-0.264c1.275,0,2.295,0.403,3.057,1.211s1.143,1.875,1.143,3.203c0,1.543-0.346,2.717-1.035,3.521
				s-1.68,1.206-2.969,1.206c-1.217,0-2.201-0.349-2.949-1.045s-1.172-1.66-1.27-2.891h0.537c0.104,1.113,0.469,1.96,1.094,2.539
				s1.488,0.869,2.588,0.869c1.172,0,2.043-0.354,2.612-1.06s0.854-1.746,0.854-3.12c0-1.185-0.33-2.132-0.991-2.842
				s-1.548-1.064-2.661-1.064c-0.684,0-1.279,0.091-1.787,0.273s-0.963,0.469-1.367,0.859L39.516,42.541z"/>
		</g>
	</g>
	<g>
		<g>
			<path fill="#142D48" d="M69.547,35.568v0.527c-1.992,0-3.538,0.589-4.639,1.768c-1.1,1.179-1.692,2.832-1.777,4.961
				c0.378-0.671,0.925-1.203,1.641-1.597c0.717-0.394,1.501-0.591,2.354-0.591c1.25,0,2.248,0.427,2.994,1.279
				c0.745,0.853,1.117,1.979,1.117,3.379c0,0.905-0.169,1.731-0.508,2.48c-0.338,0.749-0.816,1.336-1.436,1.763
				c-0.618,0.427-1.309,0.64-2.07,0.64c-0.872,0-1.66-0.202-2.363-0.605s-1.253-0.979-1.65-1.729
				c-0.396-0.749-0.602-1.602-0.615-2.559v-1.748c0-2.526,0.596-4.485,1.787-5.879S67.295,35.568,69.547,35.568z M67.057,41.164
				c-0.911,0-1.746,0.262-2.504,0.785c-0.759,0.523-1.236,1.179-1.432,1.966v1.248c0,1.34,0.381,2.423,1.143,3.249
				c0.762,0.825,1.748,1.238,2.959,1.238c1.01,0,1.843-0.421,2.5-1.263c0.658-0.843,0.986-1.875,0.986-3.098
				c0-1.262-0.325-2.265-0.977-3.009C69.083,41.536,68.19,41.164,67.057,41.164z"/>
		</g>
	</g>
	<g>
		<g>
			<path fill="#41C0F0" d="M23.009,57.067l-6.26,13.887h-0.537l6.191-13.691h-8.477v-0.527h9.082V57.067z"/>
		</g>
	</g>
	<g>
		<g>
			<path fill="#142D48" d="M46.889,60.348c0,0.795-0.246,1.49-0.737,2.086s-1.128,1.01-1.909,1.244
				c0.932,0.248,1.674,0.697,2.227,1.348c0.553,0.652,0.83,1.395,0.83,2.227c0,1.205-0.412,2.156-1.235,2.852
				c-0.823,0.697-1.919,1.045-3.286,1.045c-1.393,0-2.498-0.348-3.315-1.045c-0.817-0.695-1.226-1.646-1.226-2.852
				c0-0.84,0.269-1.584,0.806-2.23c0.537-0.648,1.271-1.096,2.202-1.344c-0.781-0.234-1.411-0.648-1.89-1.244
				s-0.718-1.291-0.718-2.086c0-1.172,0.376-2.1,1.128-2.783s1.743-1.025,2.974-1.025c1.236,0,2.238,0.35,3.003,1.045
				C46.506,58.282,46.889,59.204,46.889,60.348z M46.762,67.301c0-0.977-0.375-1.779-1.123-2.412
				c-0.748-0.631-1.709-0.947-2.881-0.947c-1.178,0-2.139,0.314-2.881,0.943c-0.742,0.627-1.113,1.434-1.113,2.416
				c0,1.004,0.363,1.807,1.089,2.412s1.7,0.908,2.925,0.908c1.197,0,2.162-0.305,2.891-0.912
				C46.397,69.1,46.762,68.297,46.762,67.301z M46.362,60.299c0-0.924-0.348-1.693-1.045-2.309s-1.557-0.924-2.578-0.924
				c-1.049,0-1.906,0.297-2.573,0.889c-0.667,0.594-1.001,1.375-1.001,2.344c0,0.926,0.332,1.676,0.996,2.252
				s1.529,0.863,2.598,0.863c1.055,0,1.919-0.291,2.593-0.873C46.025,61.958,46.362,61.211,46.362,60.299z"/>
		</g>
	</g>
	<g>
		<g>
			<path fill="#41C0F0" d="M70.514,63.883c-0.345,0.75-0.88,1.354-1.605,1.813c-0.727,0.459-1.545,0.688-2.457,0.688
				c-0.781,0-1.484-0.209-2.109-0.629s-1.113-0.998-1.465-1.734c-0.352-0.734-0.527-1.543-0.527-2.422
				c0-0.93,0.18-1.785,0.537-2.563c0.358-0.779,0.859-1.389,1.504-1.832c0.645-0.441,1.357-0.664,2.139-0.664
				c1.465,0,2.582,0.477,3.35,1.432c0.769,0.953,1.156,2.328,1.162,4.125v1.631c0,2.402-0.533,4.234-1.602,5.494
				c-1.067,1.26-2.64,1.902-4.717,1.928h-0.469l0.02-0.527h0.42c1.901-0.02,3.347-0.598,4.336-1.738
				C70.02,67.745,70.514,66.079,70.514,63.883z M66.452,65.856c0.964,0,1.816-0.283,2.559-0.85s1.244-1.318,1.504-2.256v-0.605
				c0-1.646-0.34-2.904-1.02-3.773c-0.681-0.869-1.656-1.305-2.926-1.305c-0.696,0-1.328,0.205-1.895,0.615
				s-1.007,0.969-1.322,1.676c-0.316,0.705-0.475,1.453-0.475,2.24c0,0.775,0.153,1.492,0.459,2.154
				c0.307,0.66,0.729,1.176,1.27,1.547C65.147,65.67,65.762,65.856,66.452,65.856z"/>
		</g>
	</g>
</g>
</svg>
