<?xml version="1.0" encoding="utf-8"?>
<!-- Generator: Adobe Illustrator 15.1.0, SVG Export Plug-In . SVG Version: 6.00 Build 0)  -->
<!DOCTYPE svg PUBLIC "-//W3C//DTD SVG 1.1//EN" "http://www.w3.org/Graphics/SVG/1.1/DTD/svg11.dtd">
<svg version="1.1" id="Vrstva_1" xmlns="http://www.w3.org/2000/svg" xmlns:xlink="http://www.w3.org/1999/xlink" x="0px" y="0px"
	 width="85.04px" height="85.04px" viewBox="0 0 85.04 85.04" enable-background="new 0 0 85.04 85.04" xml:space="preserve">
<g>
	<path fill="#41C0F0" d="M71.692,67.75L49.364,45.42c2.692-3.5,4.313-7.865,4.313-12.612c0-11.437-9.306-20.742-20.743-20.742
		s-20.742,9.305-20.742,20.742c0,11.438,9.305,20.743,20.742,20.743c4.747,0,9.112-1.619,12.612-4.313l22.328,22.329
		c0.527,0.527,1.219,0.791,1.909,0.791s1.382-0.264,1.909-0.791C72.747,70.513,72.747,68.804,71.692,67.75z M13.991,32.808
		c0-10.444,8.498-18.942,18.942-18.942c10.445,0,18.942,8.498,18.942,18.942c0,4.371-1.502,8.389-3.998,11.599
		c-0.92-0.275-1.954-0.063-2.682,0.665c-0.727,0.727-0.939,1.762-0.664,2.682c-3.209,2.496-7.228,3.999-11.599,3.999
		C22.488,51.752,13.991,43.254,13.991,32.808z"/>
	<path fill="#41C0F0" d="M41.437,30.108h-5.804v-5.803c0-1.491-1.209-2.7-2.7-2.7s-2.7,1.209-2.7,2.7v5.803H24.43
		c-1.491,0-2.7,1.209-2.7,2.7s1.209,2.7,2.7,2.7h5.803v5.804c0,1.491,1.209,2.7,2.7,2.7s2.7-1.209,2.7-2.7v-5.804h5.804
		c1.491,0,2.7-1.209,2.7-2.7S42.928,30.108,41.437,30.108z"/>
</g>
</svg>
